<svg xmlns="http://www.w3.org/2000/svg" xmlns:xlink="http://www.w3.org/1999/xlink" width="361" height="126" viewBox="0 0 361 126">
  <defs>
    <clipPath id="clip-path">
      <rect id="Rectangle_19566" data-name="Rectangle 19566" width="361" height="126" transform="translate(-1 326)" fill="#fff" stroke="#707070" stroke-width="1"/>
    </clipPath>
    <clipPath id="clip-path-2">
      <rect id="Rectangle_19055" data-name="Rectangle 19055" width="9.539" height="14.618" fill="none"/>
    </clipPath>
    <clipPath id="clip-path-3">
      <rect id="Rectangle_19063" data-name="Rectangle 19063" width="69.981" height="35.954" fill="none"/>
    </clipPath>
  </defs>
  <g id="Mask_Group_119119" data-name="Mask Group 119119" transform="translate(1 -326)" clip-path="url(#clip-path)">
    <g id="Group_117369" data-name="Group 117369" transform="translate(207.966 335.849)">
      <g id="Group_110847" data-name="Group 110847" transform="translate(27.779 0)">
        <g id="Group_110860" data-name="Group 110860" transform="translate(0 0)">
          <g id="Group_110845" data-name="Group 110845" transform="translate(0 0)">
            <g id="Group_110861" data-name="Group 110861">
              <path id="Path_82081" data-name="Path 82081" d="M40.74,35.174a55.307,55.307,0,0,0,3.615-8.835,19.32,19.32,0,0,0,.506-9.446c-.106-.471-1.124-3.672-1.606-3.689-.345-.012.153,2.914-.059,3.186a16.383,16.383,0,0,0-3.1,9.224,43.161,43.161,0,0,0,.644,9.56" transform="translate(35.847 0.614)" fill="#263238"/>
              <path id="Path_82082" data-name="Path 82082" d="M51.335,57.1c4.909.555,16.726-4.6,17.387-9.5L72.7,18.146c1.321-7.881-2.164-15.219-10.078-16.321l-.738-.059A14.286,14.286,0,0,0,46.639,13.725c-1.107,6.836-2.242,14.4-2.492,18.095-.519,7.65,7.03,9.453,7.03,9.453.017,0-.194,1.766-.471,4A35.166,35.166,0,0,0,51.335,57.1" transform="translate(5.816 5.636)" fill="#d3766a"/>
              <path id="Path_82083" data-name="Path 82083" d="M65,70.346A18.519,18.519,0,0,0,75.183,68.2s-2.854,5.554-10.426,4.254Z" transform="translate(-8.003 -23.437)" fill="#a2655d"/>
              <path id="Path_82084" data-name="Path 82084" d="M82.008,34.17a1.1,1.1,0,0,0,.964,1.186,1.047,1.047,0,0,0,1.2-.894,1.1,1.1,0,0,0-.963-1.186,1.049,1.049,0,0,0-1.205.895" transform="translate(-26.706 -8.159)" fill="#263238"/>
              <path id="Path_82085" data-name="Path 82085" d="M80.855,28.509c.124.153,1-.393,2.174-.3,1.174.08,1.988.754,2.126.62.068-.059-.05-.326-.4-.63a3,3,0,0,0-1.688-.672,2.884,2.884,0,0,0-1.745.412c-.383.248-.526.5-.465.565" transform="translate(-27.045 -5.648)" fill="#263238"/>
              <path id="Path_82086" data-name="Path 82086" d="M62.386,35.707a1.1,1.1,0,0,0,.964,1.186,1.047,1.047,0,0,0,1.2-.894,1.1,1.1,0,0,0-.963-1.186,1.048,1.048,0,0,0-1.205.895" transform="translate(3.957 -8.831)" fill="#263238"/>
              <path id="Path_82087" data-name="Path 82087" d="M60.432,30.634c.124.153,1-.392,2.175-.295,1.174.08,1.987.753,2.126.62.068-.059-.048-.326-.4-.63a3,3,0,0,0-1.689-.673,2.89,2.89,0,0,0-1.745.412c-.382.249-.526.5-.465.565" transform="translate(4.869 -6.577)" fill="#263238"/>
              <path id="Path_82088" data-name="Path 82088" d="M77.429,39.266a7.805,7.805,0,0,0-1.88-.5c-.3-.055-.577-.137-.611-.346a1.529,1.529,0,0,1,.271-.873l1.07-2.212a39.386,39.386,0,0,0,2.471-5.814,39.378,39.378,0,0,0-2.933,5.6q-.541,1.167-1.034,2.229a1.741,1.741,0,0,0-.25,1.164.756.756,0,0,0,.458.478,2.036,2.036,0,0,0,.5.112,7.677,7.677,0,0,0,1.933.158" transform="translate(-17.065 -6.522)" fill="#263238"/>
              <path id="Path_82089" data-name="Path 82089" d="M57.7,22.813c.136.313,1.3.089,2.69.17,1.392.053,2.529.389,2.695.091.073-.142-.139-.431-.608-.713a4.686,4.686,0,0,0-4.1-.2c-.494.235-.734.5-.674.65" transform="translate(8.061 -3.138)" fill="#263238"/>
              <path id="Path_82090" data-name="Path 82090" d="M79.232,23.654c.218.29,1.2.1,2.35.2,1.152.062,2.1.381,2.354.124.111-.126-.016-.407-.417-.7a3.714,3.714,0,0,0-1.867-.618,3.655,3.655,0,0,0-1.923.357c-.432.235-.591.5-.5.637" transform="translate(-24.924 -3.517)" fill="#263238"/>
              <path id="Path_82091" data-name="Path 82091" d="M38.829,40.783c.135-.046,5.376-1.132,4.79,4.08s-5.7,3.548-5.69,3.4.9-7.478.9-7.478" transform="translate(38.611 -11.392)" fill="#d3766a"/>
              <path id="Path_82092" data-name="Path 82092" d="M40.347,47.856c.025-.014.084.073.229.161a.914.914,0,0,0,.677.09,2.264,2.264,0,0,0,1.266-1.9,3.018,3.018,0,0,0-.108-1.328,1.055,1.055,0,0,0-.6-.774.464.464,0,0,0-.564.188c-.086.138-.065.246-.093.252s-.1-.1-.035-.311a.584.584,0,0,1,.241-.3.686.686,0,0,1,.517-.076,1.282,1.282,0,0,1,.858.914,3.1,3.1,0,0,1,.151,1.488,2.372,2.372,0,0,1-1.577,2.1.977.977,0,0,1-.815-.231c-.147-.147-.161-.266-.142-.273" transform="translate(38.006 -12.783)" fill="#a2655d"/>
              <path id="Path_82093" data-name="Path 82093" d="M40.687,4.871C39.9,4.3,42.76,1.882,44.945,1.194c3.3-1.04,8.187-1.334,10.973-.165,3.355,1.407,6.031,3.485,7.392,6.859a20.63,20.63,0,0,1,1.029,10.735,6.269,6.269,0,0,1-1.12,3.091c-.867,1.063-2.35,1.619-2.482,3.214A2.195,2.195,0,0,1,60,26.452c-1.075.9-2.125-.2-2.545-1.215-.9-2.178-.729-4.628-.546-6.977a15.317,15.317,0,0,1,.931-4.911c.36-.837.868-1.607,1.182-2.463a3.151,3.151,0,0,0-.053-2.644,3.256,3.256,0,0,0-.371-.479,5.469,5.469,0,0,0-5.262-1.68c-3.058.681-8.252,1.623-9.44.469A8.08,8.08,0,0,1,41.855,3.9Z" transform="translate(16.184 6.268)" fill="#263238"/>
              <path id="Path_82094" data-name="Path 82094" d="M74.777,48.648c.07.019.077.308-.078.746a2.925,2.925,0,0,1-1.126,1.414,4.835,4.835,0,0,1-1.626.694c-.434.1-.712.113-.736.042s.215-.218.6-.409a10.959,10.959,0,0,0,1.443-.78c1.046-.685,1.354-1.763,1.518-1.706" transform="translate(-11.276 -14.885)" fill="#263238"/>
              <path id="Path_82095" data-name="Path 82095" d="M46.951,42.087c-.043.091-.086.187-.128.293,0,0,.048-.1.128-.293" transform="translate(30.32 -12.017)" fill="#ff725e"/>
              <path id="Path_82096" data-name="Path 82096" d="M52.162,22.881s-.875-1.152-1.786.8C51.462,21.125,58.684,2.653,38.886.216c0,0,7.15-1.262,11.464,2.3,0,0,8.763,5.243,1.812,20.37" transform="translate(26.894 6.389)" fill="#263238"/>
              <path id="Path_82097" data-name="Path 82097" d="M13.775,93.429s5.721,3.3,6.881,7.168c.7,2.351,6.041,32.43,6.885,38.361.852,5.988-.937,10.325-3.466,12.292s-10.2,4.589-10.2,4.589L3.091,159.332,0,151.464l10.268-14.75-.993-9.937Z" transform="translate(75.862 -34.469)" fill="#1794c9"/>
              <path id="Path_82098" data-name="Path 82098" d="M93.537,81.8l-3.567-2.631s-4.648,4.757-9.988,4.195a13.42,13.42,0,0,1-8.5-4.648L55.556,81.953a7.817,7.817,0,0,0-4.88,3.551c-2.079,2.97-11.932,16.141-11.932,16.141h-6.9a5.118,5.118,0,0,0-4.534,2.735c-1.178,2.242-2.592,5.242-2.454,6.485.234,2.1-.172,7.869,2.646,9.67.894.571,4.091,2.285,6.572,2.167a22.092,22.092,0,0,0,10.363-3.792c2.075-1.45,6.9-6.464,8.755-8.421l0,.03,1.191,41.773L96.13,151.1l8.652-64.112s-10.824-5.2-11.246-5.2" transform="translate(-15.146 -28.033)" fill="#1794c9"/>
              <path id="Path_82099" data-name="Path 82099" d="M116.284,104.085c.059,0,.168,5.177.244,11.563s.088,11.567.029,11.567-.168-5.176-.244-11.564-.088-11.566-.029-11.566" transform="translate(-78.388 -39.129)" fill="#263238"/>
              <path id="Path_82100" data-name="Path 82100" d="M35.645,164.1c0,.021-.354.057-.985.177a12.172,12.172,0,0,0-2.585.823,16.815,16.815,0,0,0-3.442,2.079,30.073,30.073,0,0,0-3.626,3.354c-1.2,1.289-2.285,2.565-3.31,3.7a39.921,39.921,0,0,1-2.844,2.9,20.211,20.211,0,0,1-2.138,1.711c-.262.189-.482.312-.625.4a1.184,1.184,0,0,1-.227.125,1.2,1.2,0,0,1,.2-.162c.134-.1.346-.237.6-.436a23.841,23.841,0,0,0,2.084-1.754c.843-.783,1.787-1.779,2.8-2.917s2.1-2.417,3.3-3.711a29.059,29.059,0,0,1,3.663-3.364,16.334,16.334,0,0,1,3.5-2.061,11.192,11.192,0,0,1,2.63-.766,7.1,7.1,0,0,1,.741-.085,1.174,1.174,0,0,1,.259-.01" transform="translate(59.047 -65.371)" fill="#263238"/>
              <path id="Path_82101" data-name="Path 82101" d="M23.778,159.065c.006.039-.632.127-1.627.4a15.111,15.111,0,0,0-6.838,4.073c-.716.743-1.1,1.262-1.128,1.238a1.837,1.837,0,0,1,.242-.383,9.937,9.937,0,0,1,.775-.959,13.726,13.726,0,0,1,6.91-4.117,10.088,10.088,0,0,1,1.213-.225,1.823,1.823,0,0,1,.452-.03" transform="translate(71.859 -63.17)" fill="#263238"/>
              <path id="Path_86617" data-name="Path 86617" d="M13.8,1.33a4.218,4.218,0,0,0-2.537,3.513,16.932,16.932,0,0,0,.472,4.094,5.156,5.156,0,0,1-.741,4.013,7.334,7.334,0,0,1-3.952,2.3,21.1,21.1,0,0,1-5.12.58,8.383,8.383,0,0,0,3.11,1.08c-1.673.5-3.346,1.007-5.03,1.507,2.885,1.152,6.512.838,9.6-.016a16.661,16.661,0,0,0,6.444-3.151C17.717,13.8,18.682,11.87,18.312,10c-.292-1.475-1.381-2.82-1.707-4.3-.472-2.119.786-4.4,3.166-5.705" transform="matrix(0.809, 0.588, -0.588, 0.809, 11.268, 30.238)" fill="#18a94f"/>
              <g id="Group_110843" data-name="Group 110843" transform="translate(17.932 74.019)" opacity="0.3">
                <g id="Group_110842" data-name="Group 110842">
                  <g id="Group_110841" data-name="Group 110841" clip-path="url(#clip-path-2)">
                    <path id="Path_82102" data-name="Path 82102" d="M135.327,134.736c2.21.6,4.864-2.578,6.872-4.567a8.465,8.465,0,0,0,2.514-3.559,5.646,5.646,0,0,0-.347-3.562,13.1,13.1,0,0,0-1.469-2.855c.185,1.715.607,4.345.03,6.5a11.536,11.536,0,0,1-2.83,4.587,10.194,10.194,0,0,1-4.769,3.455" transform="translate(-135.327 -120.193)"/>
                  </g>
                </g>
              </g>
              <path id="Path_82103" data-name="Path 82103" d="M136.046,132.831c-.042-.013.215-.728.422-1.927a14.749,14.749,0,0,0,.2-2.121,14.582,14.582,0,0,0-.81-5.128,14.593,14.593,0,0,0-.846-1.956c-.567-1.076-1.03-1.677-.995-1.7a2.525,2.525,0,0,1,.339.41,5.37,5.37,0,0,1,.358.512c.13.207.289.435.43.708a13.181,13.181,0,0,1,.9,1.962,13.826,13.826,0,0,1,.822,5.2,13.251,13.251,0,0,1-.252,2.143c-.05.3-.131.57-.191.806a5.585,5.585,0,0,1-.183.6,2.527,2.527,0,0,1-.2.5" transform="translate(-108.665 -46.087)" fill="#263238"/>
              <path id="Path_82104" data-name="Path 82104" d="M82.824,81.572c.029.056-.461.34-.973.8s-.855.908-.907.873a3.14,3.14,0,0,1,1.88-1.673" transform="translate(-24.752 -29.281)" fill="#263238"/>
              <path id="Path_82105" data-name="Path 82105" d="M74.478,86.063c.045.045-.375.5-.713,1.163s-.467,1.267-.53,1.256a3.071,3.071,0,0,1,1.243-2.419" transform="translate(-12.061 -31.246)" fill="#263238"/>
              <path id="Path_82106" data-name="Path 82106" d="M60.882,88.768a6.718,6.718,0,0,1-.478-1.245,6.716,6.716,0,0,1-.426-1.264,4.855,4.855,0,0,1,.9,2.51" transform="translate(8.973 -31.333)" fill="#263238"/>
              <path id="Path_82107" data-name="Path 82107" d="M53.158,84.527c-.064.014-.227-.715-.7-1.483s-1.033-1.257-.99-1.307a3.642,3.642,0,0,1,1.688,2.79" transform="translate(21.485 -29.354)" fill="#263238"/>
              <path id="Path_82108" data-name="Path 82108" d="M30.431,110.739c.059.008-.648,5.714-1.578,12.743S27.12,136.206,27.061,136.2s.648-5.712,1.579-12.744,1.733-12.722,1.791-12.715" transform="translate(57.958 -42.039)" fill="#263238"/>
              <path id="Path_82109" data-name="Path 82109" d="M131.557,82.186c-.289-.245.976-5.113.976-5.113s-3.349-5.465-3.437-7.228,1.322-5.377,1.322-5.377L140.025,62a75.2,75.2,0,0,1,3.7,7.757c.616,2.027-1.058,8.9-1.058,8.9l-1.628,3.526s-4.908,3.879-9.485,0" transform="translate(-112.885 -20.725)" fill="#d3766a"/>
              <path id="Path_82110" data-name="Path 82110" d="M130.782,68.313a21.208,21.208,0,0,1-1.012-2.134c-.608-1.443-1.355-2.857,0-3.664a1.77,1.77,0,0,1,1.448-.228s-.208-1.214.518-1.67a1.564,1.564,0,0,1,1.425-.124s-.229-1.712.815-2.439a2.536,2.536,0,0,1,2.661-.076s.113-2.623,1.564-2.263a13.307,13.307,0,0,1,2.339,1.722s1.688,2.932,2.484,4.523a38.61,38.61,0,0,1,2.5,6.17c.339,2.48-1.113,5.764-1.113,5.764l-10.214.593s-3.03-5.463-3.419-6.174" transform="translate(-114.554 -18.139)" fill="#d3766a"/>
              <g id="Group_117311" data-name="Group 117311" transform="matrix(0.809, 0.588, -0.588, 0.809, 33.895, 20.622)">
                <g id="Group_69233" data-name="Group 69233" transform="translate(0 0)">
                  <g id="Group_69225" data-name="Group 69225" transform="translate(0 0)">
                    <g id="Group_69222" data-name="Group 69222" transform="translate(0.303 0.079)">
                      <path id="Path_67993" data-name="Path 67993" d="M6.938,1.564,0,47.03c1.763,2.756,5.2,3.07,9.992,1.354L16.74,1.79C14.034-.676,10.688-.442,6.938,1.564Z" transform="translate(0 0)" fill="#fafafa"/>
                    </g>
                    <g id="Group_69224" data-name="Group 69224" transform="translate(0)">
                      <g id="Group_69223" data-name="Group 69223">
                        <path id="Path_67994" data-name="Path 67994" d="M7.242,1.644c-.011,0,.034-.032.135-.089.123-.064.258-.145.438-.242a14.438,14.438,0,0,1,1.864-.8,8.828,8.828,0,0,1,3.447-.5A6.882,6.882,0,0,1,17.167,1.8l.034.032-.011.04c-1.269,9.34-3.705,26.568-6.557,46.231l-.056.371-.022.121-.146.048A15.368,15.368,0,0,1,4.581,49.7a6.364,6.364,0,0,1-2.807-.806,5.243,5.243,0,0,1-1.74-1.708L0,47.133l.011-.056c2.01-12.9,3.784-24.272,5.052-32.443.651-4.045,1.179-7.293,1.549-9.565q.286-1.644.438-2.563c.056-.274.09-.492.123-.661.034-.129.056-.21.067-.2a.918.918,0,0,1-.011.234c-.022.169-.045.395-.079.677-.079.621-.2,1.483-.348,2.595-.326,2.281-.8,5.536-1.381,9.6C4.21,22.9,2.515,34.248.595,47.125l-.022-.113a4.748,4.748,0,0,0,1.594,1.563,5.63,5.63,0,0,0,2.492.709,14.665,14.665,0,0,0,5.524-1.015l-.157.169.056-.371c2.852-19.662,5.4-36.883,6.837-46.207l.034.081A6.5,6.5,0,0,0,13.125.193,8.824,8.824,0,0,0,9.768.628,23.667,23.667,0,0,0,7.242,1.644Z" fill="#d5d0d0"/>
                      </g>
                    </g>
                  </g>
                  <g id="Group_69227" data-name="Group 69227" transform="translate(0.218 45.227)">
                    <g id="Group_69226" data-name="Group 69226" transform="translate(0 0)">
                      <path id="Path_67995" data-name="Path 67995" d="M9.909,3.364c-.1.016-.236-.5-.865-1.168A6.028,6.028,0,0,0,5.564.487a7.5,7.5,0,0,0-4.132.621c-.943.443-1.347.886-1.426.846C-.049,1.938.242,1.414,1.2.866a7.34,7.34,0,0,1,4.491-.8A5.773,5.773,0,0,1,9.415,2.035C9.976,2.808,9.965,3.364,9.909,3.364Z" fill="#d5d0d0"/>
                    </g>
                  </g>
                  <g id="Group_69229" data-name="Group 69229" transform="translate(2.128 46.279)">
                    <g id="Group_69228" data-name="Group 69228" transform="translate(0 0)">
                      <path id="Path_67996" data-name="Path 67996" d="M6.988,1.08c.056.024-.4.548-1.617.983a6.938,6.938,0,0,1-2.279.379A6.931,6.931,0,0,1,1.7,2.313a2.765,2.765,0,0,1-1.347-.6A.854.854,0,0,1,.173.524,1.857,1.857,0,0,1,1.543,0C2.52-.016,3.362.476,3.429,1.048a.7.7,0,0,1-.393.669,1.058,1.058,0,0,1-.752.081c-.4-.121-.415-.338-.371-.33.045-.016.123.137.438.177a.737.737,0,0,0,.483-.1.45.45,0,0,0,.191-.459C2.958.734,2.3.355,1.565.4A1.194,1.194,0,0,0,.678.734a.535.535,0,0,0,.146.733,3.865,3.865,0,0,0,2.279.6A7.638,7.638,0,0,0,5.214,1.8,17.05,17.05,0,0,0,6.988,1.08Z" fill="#d5d0d0"/>
                    </g>
                  </g>
                  <g id="Group_69231" data-name="Group 69231" transform="translate(5.942 0.556)">
                    <g id="Group_69230" data-name="Group 69230" transform="translate(0 0)">
                      <path id="Path_67997" data-name="Path 67997" d="M9.058,0a1.426,1.426,0,0,1-.045.459c-.067.347-.135.782-.236,1.314-.236,1.193-.55,2.828-.932,4.811C7.06,10.7,6,16.294,4.825,22.475,3.658,28.68,2.535,34.3,1.637,38.35,1.188,40.381.806,42.016.514,43.145c-.135.524-.258.959-.348,1.3a1.717,1.717,0,0,1-.157.451,1.424,1.424,0,0,1,.045-.459c.067-.347.135-.782.236-1.314.236-1.193.55-2.82.932-4.811.786-4.118,1.841-9.71,3.02-15.891C5.409,16.213,6.532,10.6,7.43,6.543c.449-2.031.831-3.667,1.123-4.795.135-.524.258-.959.348-1.3A1.716,1.716,0,0,1,9.058,0Z" transform="translate(0)" fill="#d5d0d0"/>
                    </g>
                  </g>
                  <g id="Group_69232" data-name="Group 69232" transform="translate(3.817 19.854)">
                    <path id="Path_67998" data-name="Path 67998" d="M0,5.546s5.591-2.861,9.442.862l.64-4.771S6.164-1.755.618,1.226Z" transform="translate(0 0)" fill="#18a94f"/>
                  </g>
                </g>
              </g>
              <path id="Path_82111" data-name="Path 82111" d="M151.93,67.681a8.469,8.469,0,0,1,.791,1.1l.807,1.229a5.218,5.218,0,0,1,.439.768,1.56,1.56,0,0,1,.12.974.98.98,0,0,1-.645.756,1.279,1.279,0,0,1-.915-.113,4.1,4.1,0,0,1-.682-.422c-.2-.144-.385-.282-.55-.412-.331-.259-.589-.481-.762-.639s-.262-.254-.253-.266.425.3,1.105.783a8.982,8.982,0,0,0,1.223.775,1.1,1.1,0,0,0,.77.093.775.775,0,0,0,.5-.6,1.372,1.372,0,0,0-.1-.845,5.357,5.357,0,0,0-.412-.743l-.769-1.254a8.543,8.543,0,0,1-.662-1.184" transform="translate(-135.064 -23.209)" fill="#eb996e"/>
              <path id="Path_82115" data-name="Path 82115" d="M143.851,67.45c1.075,1.632,2.023,3.426,2.929,5.157a3.2,3.2,0,0,0,1.026,1.334c.387.239,1.349-.195,1.779-.342l-2.951-6.714" transform="translate(-126.911 -22.861)" fill="#d3766a"/>
              <path id="Path_82116" data-name="Path 82116" d="M146.381,66.885a3.077,3.077,0,0,1,.262.5l.653,1.406c.546,1.2,1.3,2.87,2.133,4.765l.046.1-.109.039a10.793,10.793,0,0,1-1.03.349,2.084,2.084,0,0,1-.451.068.787.787,0,0,1-.242-.025.662.662,0,0,1-.222-.11,2.3,2.3,0,0,1-.594-.635c-.3-.476-.517-.954-.757-1.4-.464-.893-.888-1.692-1.257-2.357s-.678-1.2-.894-1.563a4.4,4.4,0,0,1-.322-.578,3.475,3.475,0,0,1,.393.534c.238.353.569.874.954,1.532s.826,1.452,1.3,2.34c.243.439.469.927.757,1.374a2.114,2.114,0,0,0,.541.577.888.888,0,0,0,.742.035c.349-.088.681-.226,1.012-.343l-.062.143c-.83-1.9-1.556-3.581-2.068-4.793l-.594-1.433a3.06,3.06,0,0,1-.191-.531" transform="translate(-126.657 -22.861)" fill="#eb996e"/>
              <path id="Path_82117" data-name="Path 82117" d="M139.3,62.332l2.846,7.135a4.874,4.874,0,0,0,.765,1.431,1.656,1.656,0,0,0,1.433.625,1.693,1.693,0,0,0,1.264-1.645,5.324,5.324,0,0,0-.533-2.166,45.128,45.128,0,0,1-2.04-6.677" transform="translate(-120.368 -20.303)" fill="#d3766a"/>
              <path id="Path_86619" data-name="Path 86619" d="M0,.908,2.846,8.043A4.875,4.875,0,0,0,3.61,9.474a1.656,1.656,0,0,0,1.433.625A1.693,1.693,0,0,0,6.307,8.453a5.324,5.324,0,0,0-.533-2.166C4.922,4.119,3.839,0,3.839,0" transform="translate(21.896 39.004) rotate(3)" fill="#d3766a"/>
              <path id="Path_82118" data-name="Path 82118" d="M142.842,61.034a.917.917,0,0,1,.071.217c.045.167.1.376.169.631.147.548.361,1.339.662,2.305s.688,2.109,1.178,3.354a6.923,6.923,0,0,1,.6,2.041,2.2,2.2,0,0,1-.215,1.133,1.662,1.662,0,0,1-.855.838,1.439,1.439,0,0,1-1.2-.1,2.247,2.247,0,0,1-.84-.791,12.6,12.6,0,0,1-.86-1.939l-1.3-3.318-.858-2.243c-.091-.248-.164-.451-.223-.614a.914.914,0,0,1-.064-.219.912.912,0,0,1,.1.2l.261.6.921,2.218,1.341,3.3a12.882,12.882,0,0,0,.852,1.9,2.041,2.041,0,0,0,.762.717,1.225,1.225,0,0,0,1.019.087,1.455,1.455,0,0,0,.742-.732,2,2,0,0,0,.2-1.027,6.853,6.853,0,0,0-.57-1.982c-.482-1.255-.856-2.406-1.139-3.382s-.475-1.775-.6-2.33c-.06-.277-.1-.493-.13-.641a.931.931,0,0,1-.029-.227" transform="translate(-120.181 -20.303)" fill="#eb996e"/>
              <path id="Path_82119" data-name="Path 82119" d="M131.049,112.219c.257-.943,6.6-18.082,6.6-18.082l10.91-3.353-4.392,16.548s.686,4.2,0,6.688-6.173,9.259-9,7.63-4.372-8.488-4.115-9.431" transform="translate(-118.665 -33.313)" fill="#d3766a"/>
              <g id="Group_117310" data-name="Group 117310" transform="translate(35.22)">
                <g id="Group_68885" data-name="Group 68885" transform="translate(10.74 1.181)">
                  <path id="Path_67854" data-name="Path 67854" d="M337.72,160.533l.07-1.531a1.489,1.489,0,0,1,1.591-1.411c7.737.571,42.4,3.153,43.18,3.563.931.49.621,2.152.621,2.152a5.382,5.382,0,0,1-.971,1.521Z" transform="translate(-337.72 -157.586)" fill="#1794c9"/>
                </g>
                <path id="Path_86616" data-name="Path 86616" d="M381.56,162.053l-42.289-3.133a1.447,1.447,0,0,0-1.291,2.272l5.505,7.937a1.484,1.484,0,0,0,1.051.621l31.529,3.043a1.453,1.453,0,0,0,1.341-.631l5.255-7.857A1.456,1.456,0,0,0,381.56,162.053Z" transform="translate(-326.981 -156.403)" fill="#1794c9"/>
                <path id="Path_67856" data-name="Path 67856" d="M381.56,162.053l-42.289-3.133a1.447,1.447,0,0,0-1.291,2.272l5.505,7.937a1.484,1.484,0,0,0,1.051.621l31.529,3.043a1.453,1.453,0,0,0,1.341-.631l5.255-7.857A1.456,1.456,0,0,0,381.56,162.053Z" transform="translate(-326.981 -156.404)" fill="#082836" opacity="0.58"/>
                <path id="Path_67857" data-name="Path 67857" d="M346.05,172.4c0,.1.25-1.892.25-1.972a8.448,8.448,0,0,1,8.818-8,52.6,52.6,0,0,1,11.871,1.441,9.743,9.743,0,0,1,7.527,8.648l.27,2.873Z" transform="translate(-328.105 -156.401)" fill="#1794c9"/>
                <g id="Group_68890" data-name="Group 68890" transform="translate(6.095)">
                  <g id="Group_68889" data-name="Group 68889" transform="translate(0)">
                    <path id="Path_67858" data-name="Path 67858" d="M333.08,167.08c.02-.04.33.09.911.17a4.773,4.773,0,0,0,2.422-.36,7.158,7.158,0,0,0,2.883-2.222,39.808,39.808,0,0,0,2.542-3.834,11.6,11.6,0,0,1,3.153-3.493,4.984,4.984,0,0,1,3.753-.851,3.707,3.707,0,0,1,2.272,1.251,1.679,1.679,0,0,1,.44.851c-.04.02-.18-.29-.591-.711a3.74,3.74,0,0,0-2.182-1.021,4.71,4.71,0,0,0-3.423.891,11.474,11.474,0,0,0-2.983,3.373,33.318,33.318,0,0,1-2.612,3.864,7.148,7.148,0,0,1-3.123,2.252,4.675,4.675,0,0,1-2.592.21A1.712,1.712,0,0,1,333.08,167.08Z" transform="translate(-333.08 -156.406)" fill="#263238"/>
                  </g>
                </g>
                <g id="Group_68891" data-name="Group 68891" transform="translate(0 7.131)">
                  <path id="Path_67859" data-name="Path 67859" d="M333.4,167.143c-1.331-1.582-3.6-2.082-4.985-3.613a2.6,2.6,0,0,0,.831,1.6c-.26.11-.541-.06-.771-.2s-.551-.28-.781-.12a.761.761,0,0,0-.23.33,5.635,5.635,0,0,0-.47,2.1c1.311.18,2.622.29,3.934.34.811.03,2.092.39,2.442-.41" transform="translate(-326.99 -163.53)" fill="#263238"/>
                </g>
              </g>
              <path id="Path_86618" data-name="Path 86618" d="M148.755,75.707a3.457,3.457,0,0,0,1.255,1.223c.387.239,1.489.415,1.526-.662s-1.526-2.733-1.526-2.733" transform="translate(-132.681 -27.894)" fill="#d3766a"/>
            </g>
          </g>
        </g>
      </g>
      <g id="Group_110858" data-name="Group 110858" transform="translate(0 80.65)">
        <g id="Group_110857" data-name="Group 110857" transform="translate(0 0)" clip-path="url(#clip-path-3)">
          <path id="Path_82183" data-name="Path 82183" d="M2.7.106H40.945a2.478,2.478,0,0,1,2.669,2.02l5.1,31.239H68.836a1.277,1.277,0,0,1,0,2.546H4.555L.162,3.3A2.716,2.716,0,0,1,2.7.106" transform="translate(-0.11 -0.041)" fill="#e0e0e0"/>
          <path id="Path_82184" data-name="Path 82184" d="M2.586.065a3.227,3.227,0,0,0-.657.106A2.567,2.567,0,0,0,.445,1.36,2.889,2.889,0,0,0,.05,2.72a4.464,4.464,0,0,0,.064.824q.059.431.124.9C.408,5.685.6,7.119.825,8.73,1.7,15.179,2.962,24.472,4.508,35.862l-.064-.056,62.148-.019h2.126a1.032,1.032,0,0,0,.382-.074,1.111,1.111,0,0,0,.568-.521,1.269,1.269,0,0,0-.2-1.466,1.029,1.029,0,0,0-.691-.316l-.834,0H61.316l-12.717,0h-.069l-.011-.067C46.814,22.857,45.223,13.077,43.8,4.3L43.53,2.671c-.046-.268-.084-.544-.137-.8a2.132,2.132,0,0,0-.319-.714A2.332,2.332,0,0,0,41.818.279a3.342,3.342,0,0,0-.763-.14C40.8.126,40.533.133,40.273.13l-6.059,0L23.444.116,8.108.093,4,.08,2.945.073c-.238,0-.36-.007-.36-.007s.122,0,.36-.007L4,.051l4.1-.013L23.444.014,34.213,0l6.059,0c.263,0,.521-.006.791.007a3.466,3.466,0,0,1,.794.145,2.469,2.469,0,0,1,1.326.927,2.291,2.291,0,0,1,.34.759c.057.276.094.541.14.812l.267,1.633c1.435,8.772,3.033,18.55,4.747,29.029l-.079-.067,12.717,0H67.94l.842,0a1.192,1.192,0,0,1,.8.364,1.435,1.435,0,0,1,.232,1.661,1.279,1.279,0,0,1-.654.6,1.2,1.2,0,0,1-.444.086H66.592L4.444,35.936H4.387l-.007-.056C2.857,24.487,1.615,15.191.752,8.74L.183,4.449q-.062-.466-.119-.9A4.4,4.4,0,0,1,0,2.718,2.919,2.919,0,0,1,.412,1.341,2.574,2.574,0,0,1,1.924.152,2.065,2.065,0,0,1,2.417.071c.112-.006.169-.006.169-.006" transform="translate(0.001 0)" fill="#263238"/>
          <path id="Path_82185" data-name="Path 82185" d="M76.833,28.8a2.654,2.654,0,1,1-2.654-2.654A2.654,2.654,0,0,1,76.833,28.8" transform="translate(-51.04 -9.994)" fill="#fff"/>
          <path id="Path_82186" data-name="Path 82186" d="M43.576,35.792c-.06.01-1.409-7.857-3.013-17.569S37.707.626,37.767.616s1.409,7.855,3.014,17.571,2.856,17.6,2.8,17.605" transform="translate(3.072 -0.236)" fill="#263238"/>
        </g>
      </g>
    </g>
    <g id="Group_117368" data-name="Group 117368" transform="translate(20.6 340.353)">
      <g id="_3647050" data-name="3647050" transform="translate(38.87 0)">
        <g id="Character" transform="translate(0 0)">
          <g id="Group_93995" data-name="Group 93995">
            <g id="Group_93671" data-name="Group 93671" transform="translate(6.306)">
              <g id="Group_93667" data-name="Group 93667" transform="translate(23.928)">
                <path id="Path_77721" data-name="Path 77721" d="M90.49,179.266a22.138,22.138,0,0,1,8.218-7.488,14.51,14.51,0,0,1,10.91-1,10.823,10.823,0,0,1,7.229,7.918c.551,2.92.076,7.462,2.257,9.477,4.465,4.12,3.789,11.927,1.16,16.388,0,0-4.058,4.909.322,9.455,0,0,2.589,1.832,1.294,6.8-2.02,7.753,6.808,12.057,1.473,10.852L105.507,229.7l-2-20.23" transform="translate(-90.49 -170.129)" fill="#263238"/>
              </g>
              <g id="Group_93668" data-name="Group 93668" transform="translate(0 20.052)">
                <path id="Path_77722" data-name="Path 77722" d="M50.453,214.9a4.2,4.2,0,0,0-1.406,3.731,22.675,22.675,0,0,0,.972,4.04,6.515,6.515,0,0,1,.022,4.089c-.9,2.195-3.444,3.09-5.379,4.456a10.786,10.786,0,0,0-4.434,9.535,7.1,7.1,0,0,1-.054,3.193c-.448,1.147-1.621,1.832-2.329,2.835a5.492,5.492,0,0,0-.09,5.5,16.14,16.14,0,0,0,3.7,4.394,95.583,95.583,0,0,1,21.82-14.242" transform="translate(-37.063 -214.9)" fill="#263238"/>
              </g>
            </g>
            <g id="Group_93756" data-name="Group 93756" transform="translate(16.811 11.955)">
              <g id="Group_93687" data-name="Group 93687" transform="translate(78.233)">
                <g id="Group_93674" data-name="Group 93674">
                  <g id="Group_93672" data-name="Group 93672" transform="translate(0 6.181)">
                    <path id="Path_77724" data-name="Path 77724" d="M216.03,260.232l8.738,2.822s6.069-3.731,6.414-5.1c.358-1.429-.291-1.577-.524-1.55,0,0,2.163-1.89,1.017-3.619,0,0,1.93-2.038.631-3.252l-.7-.573a4.15,4.15,0,0,0,.188-3.3,1.059,1.059,0,0,0-1.317-.475l-7.148,2.665-4.573,3.063Z" transform="translate(-216.03 -245.121)" fill="#ffbe9d"/>
                  </g>
                  <g id="Group_93673" data-name="Group 93673" transform="translate(10.682)">
                    <path id="Path_77725" data-name="Path 77725" d="M239.88,240.376l2.441-8.863,2.015-.193-1.908,7.036Z" transform="translate(-239.88 -231.32)" fill="#263238"/>
                  </g>
                </g>
                <g id="Group_93678" data-name="Group 93678" transform="translate(0.742 5.428)">
                  <g id="Group_93675" data-name="Group 93675" transform="translate(0.006 0.175)">
                    <path id="Path_77726" data-name="Path 77726" d="M217.7,256.76l2.145-7.144,7.739-5.787a2.6,2.6,0,0,1-.009,2.656,24.971,24.971,0,0,1-2.262,3.054c-.264.408-1.37,2.517-1.37,2.517a9.126,9.126,0,0,1,.246,5.9" transform="translate(-217.7 -243.83)" fill="#ffbe9d"/>
                  </g>
                  <g id="Group_93677" data-name="Group 93677">
                    <g id="Group_93676" data-name="Group 93676">
                      <path id="Path_77727" data-name="Path 77727" d="M224.192,257.741a2.7,2.7,0,0,1,.072-.417c.031-.134.063-.3.09-.5a6.213,6.213,0,0,0,.085-.685,9.664,9.664,0,0,0,0-1.877,8.28,8.28,0,0,0-.578-2.387l-.018-.045.018-.036q.457-.853.976-1.814c.085-.161.175-.322.264-.488.045-.081.085-.166.134-.246a2.455,2.455,0,0,1,.179-.233c.242-.3.493-.6.743-.9a12.913,12.913,0,0,0,1.379-2.029,2.5,2.5,0,0,0-.054-2.405l.166.027c-.21.157-.434.327-.663.5-2.616,1.948-5.048,3.758-7.09,5.276l.036-.049c-.658,2.132-1.2,3.905-1.6,5.173-.193.6-.345,1.084-.461,1.438-.049.152-.094.273-.13.376a.539.539,0,0,1-.054.125.5.5,0,0,1,.027-.134c.027-.1.058-.228.1-.385.1-.358.237-.846.408-1.456.372-1.276.9-3.059,1.518-5.2l.009-.031.027-.018,7.067-5.307c.228-.17.452-.34.663-.5l.1-.076.063.1a2.714,2.714,0,0,1,.063,2.638,12.892,12.892,0,0,1-1.415,2.065c-.255.3-.506.6-.752.9-.058.072-.116.148-.166.219s-.09.161-.134.242c-.09.161-.179.322-.264.484q-.524.947-.99,1.8V251.8a8.311,8.311,0,0,1,.56,2.45,9.2,9.2,0,0,1-.04,1.9,5.76,5.76,0,0,1-.112.685,4.624,4.624,0,0,1-.116.5A2.059,2.059,0,0,1,224.192,257.741Z" transform="translate(-217.688 -243.44)" fill="#eb996e"/>
                    </g>
                  </g>
                </g>
                <g id="Group_93680" data-name="Group 93680" transform="translate(8.952 6.386)">
                  <g id="Group_93679" data-name="Group 93679">
                    <path id="Path_77728" data-name="Path 77728" d="M242.63,249.238a3.014,3.014,0,0,1-.515.349c-.381.228-.869.524-1.451.873-.632.367-1.362.8-2.168,1.267a2.41,2.41,0,0,1-1.465.43,1.125,1.125,0,0,1-.752-.394,1.262,1.262,0,0,1-.26-.829,2.621,2.621,0,0,1,.681-1.487,12.9,12.9,0,0,1,.985-1.124,13.828,13.828,0,0,1,1.926-1.63,12.235,12.235,0,0,1,1.46-.869,3.024,3.024,0,0,1,.573-.246,4.183,4.183,0,0,1-.529.327,15.9,15.9,0,0,0-1.406.923,14.264,14.264,0,0,0-1.868,1.644,13.353,13.353,0,0,0-.958,1.115,2.453,2.453,0,0,0-.627,1.353,1.054,1.054,0,0,0,.211.681.9.9,0,0,0,.6.314,2.194,2.194,0,0,0,1.33-.39c.815-.457,1.554-.869,2.19-1.227.6-.327,1.1-.6,1.487-.811A3.123,3.123,0,0,1,242.63,249.238Z" transform="translate(-236.018 -245.578)" fill="#eb996e"/>
                  </g>
                </g>
                <g id="Group_93682" data-name="Group 93682" transform="translate(9.879 10.098)">
                  <g id="Group_93681" data-name="Group 93681">
                    <path id="Path_77729" data-name="Path 77729" d="M243.853,257.613a2.727,2.727,0,0,1-.457.367c-.3.219-.748.533-1.312.9a22.026,22.026,0,0,1-2.033,1.209,2.033,2.033,0,0,1-.672.251,1.021,1.021,0,0,1-.752-.2,1.522,1.522,0,0,1-.515-1.46,2.839,2.839,0,0,1,.748-1.344,11.381,11.381,0,0,1,1.017-.972,17.947,17.947,0,0,1,1.908-1.406c.564-.367,1.035-.64,1.362-.829a2.675,2.675,0,0,1,.52-.269,3,3,0,0,1-.47.345l-1.317.891a21.612,21.612,0,0,0-1.859,1.429,11.67,11.67,0,0,0-.985.963,2.65,2.65,0,0,0-.69,1.236,1.3,1.3,0,0,0,.421,1.232.776.776,0,0,0,.587.157,1.907,1.907,0,0,0,.6-.219c.793-.394,1.473-.806,2.047-1.16l1.348-.842A3.236,3.236,0,0,1,243.853,257.613Z" transform="translate(-238.088 -253.867)" fill="#eb996e"/>
                  </g>
                </g>
                <g id="Group_93684" data-name="Group 93684" transform="translate(9.491 15.123)">
                  <g id="Group_93683" data-name="Group 93683">
                    <path id="Path_77730" data-name="Path 77730" d="M242.357,267.426a1.858,1.858,0,0,1-.367.269c-.246.161-.6.394-1.053.663a12.25,12.25,0,0,1-1.653.838,5.129,5.129,0,0,1-1.066.322,1.089,1.089,0,0,1-.632-.085.723.723,0,0,1-.354-.573,1.514,1.514,0,0,1,.054-.636,1.25,1.25,0,0,1,.314-.533,5.98,5.98,0,0,1,.806-.752,14.626,14.626,0,0,1,1.518-1.053c.448-.273.82-.479,1.084-.614a1.565,1.565,0,0,1,.421-.184,1.807,1.807,0,0,1-.376.26l-1.039.672c-.434.291-.945.645-1.473,1.079-.493.448-1.2.941-1.079,1.72a.491.491,0,0,0,.233.4.852.852,0,0,0,.493.063,5.16,5.16,0,0,0,1.012-.3,14.07,14.07,0,0,0,1.648-.779A13.405,13.405,0,0,1,242.357,267.426Z" transform="translate(-237.22 -265.086)" fill="#eb996e"/>
                  </g>
                </g>
                <g id="Group_93686" data-name="Group 93686" transform="translate(10.079 18.702)">
                  <g id="Group_93685" data-name="Group 93685">
                    <path id="Path_77731" data-name="Path 77731" d="M243.526,273.491a1.219,1.219,0,0,1-.2.363,7.135,7.135,0,0,1-.708.887,9.8,9.8,0,0,1-1.254,1.124c-.251.193-.524.385-.811.578a3.058,3.058,0,0,1-.981.493.851.851,0,0,1-.6-.072.816.816,0,0,1-.376-.457,1.391,1.391,0,0,1,.107-1.039,5.478,5.478,0,0,1,.941-1.411,3.837,3.837,0,0,1,.891-.717,1.181,1.181,0,0,1,.385-.161,5.169,5.169,0,0,0-2.015,2.374,1.2,1.2,0,0,0-.09.878.576.576,0,0,0,.717.376,2.948,2.948,0,0,0,.9-.457c.287-.184.555-.372.806-.555a11.414,11.414,0,0,0,1.263-1.07C243.168,273.965,243.49,273.468,243.526,273.491Z" transform="translate(-238.534 -273.077)" fill="#eb996e"/>
                  </g>
                </g>
              </g>
              <g id="Group_93688" data-name="Group 93688" transform="translate(0 21.05)">
                <path id="Path_77732" data-name="Path 77732" d="M138.617,250.45l-14.183,27c-21-8.333-25.832-10.129-25.832-10.129l-8.532-2.284-17.512-.927-1.5.873L60.52,269.422a191.821,191.821,0,0,0,2.992,20.414c1.989,9.038,3.632,18.923,3.632,18.923.721,6.508-4.1,31.472-4.1,31.472h48.2l-10.3-31.011a112.554,112.554,0,0,0,2.929-11.492l-1.893-10.473s1.634-.249,11.876,4.026,18.642,4.454,23.515-8.239l11.39-29.366Z" transform="translate(-60.52 -250.45)" fill="#e32726"/>
              </g>
              <g id="Group_93690" data-name="Group 93690" transform="translate(38.274 52.718)">
                <g id="Group_93689" data-name="Group 93689">
                  <path id="Path_77733" data-name="Path 77733" d="M150.511,330.608a3.521,3.521,0,0,1,0-.672c.013-.215.022-.479.018-.784s.013-.654-.009-1.039a24.071,24.071,0,0,0-.219-2.7,26.7,26.7,0,0,0-.676-3.238,25.6,25.6,0,0,0-1.115-3.113,24.512,24.512,0,0,0-1.218-2.414c-.184-.34-.376-.627-.537-.891s-.3-.484-.425-.658a3.251,3.251,0,0,1-.354-.573,3.606,3.606,0,0,1,.43.52c.134.17.291.381.461.64s.376.542.569.878a21.315,21.315,0,0,1,1.272,2.41,24.3,24.3,0,0,1,1.142,3.14,23.844,23.844,0,0,1,.663,3.274,21.566,21.566,0,0,1,.17,2.719c.009.39-.018.739-.027,1.048s-.036.573-.058.788A3.325,3.325,0,0,1,150.511,330.608Z" transform="translate(-145.978 -314.529)" fill="#263238"/>
                </g>
              </g>
              <g id="Group_93692" data-name="Group 93692" transform="translate(39.134 49.731)">
                <g id="Group_93691" data-name="Group 93691">
                  <path id="Path_77734" data-name="Path 77734" d="M149.829,307.86a9.27,9.27,0,0,1-.838,2.221,11.8,11.8,0,0,1-1.088,2.109,12.5,12.5,0,0,1,.873-2.2c.269-.6.524-1.129.712-1.514A2.917,2.917,0,0,1,149.829,307.86Z" transform="translate(-147.897 -307.86)" fill="#263238"/>
                </g>
              </g>
              <g id="Group_93694" data-name="Group 93694" transform="translate(63.409 48.435)">
                <g id="Group_93693" data-name="Group 93693">
                  <path id="Path_77735" data-name="Path 77735" d="M190.7,335.874a3.306,3.306,0,0,1-.5-.923,9.08,9.08,0,0,1-.56-4.989,3.157,3.157,0,0,1,.282-1.012,12.218,12.218,0,0,0,.775,6.924Z" transform="translate(-189.512 -328.95)" fill="#263238"/>
                </g>
              </g>
            </g>
            <g id="Group_93925" data-name="Group 93925" transform="translate(8.419 2.963)">
              <g id="Group_93905" data-name="Group 93905" transform="translate(16.966 3.896)">
                <g id="Group_93904" data-name="Group 93904">
                  <g id="Group_93903" data-name="Group 93903">
                    <g id="Group_93902" data-name="Group 93902">
                      <g id="Group_93901" data-name="Group 93901">
                        <g id="Group_93900" data-name="Group 93900">
                          <g id="Group_93899" data-name="Group 93899">
                            <g id="Group_93898" data-name="Group 93898">
                              <g id="Group_93897" data-name="Group 93897">
                                <g id="Group_93870" data-name="Group 93870">
                                  <g id="Group_93869" data-name="Group 93869">
                                    <g id="Group_93868" data-name="Group 93868">
                                      <g id="Group_93757" data-name="Group 93757">
                                        <path id="Path_77764" data-name="Path 77764" d="M106.378,194.037c-.64-4.918-5.213-10.31-14.851-8.071l-9.459,3.077a2.9,2.9,0,0,0-2.392,3.108L83.2,229.4a8.791,8.791,0,0,0,8.751,7.963h0a8.8,8.8,0,0,0,8.783-9.19c-.2-4.474-.354-8.071-.349-8.048,0,0,6.239-1.469,7-9.791C107.744,206.2,107.09,199.5,106.378,194.037Z" transform="translate(-79.664 -185.445)" fill="#ffbe9d"/>
                                        <g id="Group_110840" data-name="Group 110840" transform="translate(9.539 9.561)">
                                          <path id="Path_82071" data-name="Path 82071" d="M51.644,30.785a1.09,1.09,0,0,1-.975,1.168,1.044,1.044,0,0,1-1.187-.905,1.091,1.091,0,0,1,.974-1.168,1.043,1.043,0,0,1,1.188.906" transform="translate(-36.21 -25.489)" fill="#263238"/>
                                          <path id="Path_82072" data-name="Path 82072" d="M52.308,27.479c-.125.151-.99-.4-2.161-.322-1.17.065-1.989.725-2.125.59-.067-.06.054-.325.409-.622a2.99,2.99,0,0,1,1.69-.647,2.87,2.87,0,0,1,1.732.433c.378.252.518.5.456.569" transform="translate(-35.418 -23.659)" fill="#263238"/>
                                          <path id="Path_82073" data-name="Path 82073" d="M27.376,32.041a1.09,1.09,0,0,1-.975,1.168,1.043,1.043,0,0,1-1.187-.905,1.091,1.091,0,0,1,.974-1.168,1.043,1.043,0,0,1,1.188.906" transform="translate(-23.142 -26.166)" fill="#263238"/>
                                          <path id="Path_82074" data-name="Path 82074" d="M27.188,28.842c-.126.151-.991-.4-2.161-.322-1.17.065-1.989.725-2.126.59-.066-.06.052-.324.41-.622A2.989,2.989,0,0,1,25,27.84a2.879,2.879,0,0,1,1.732.433c.378.252.517.5.456.569" transform="translate(-21.891 -24.393)" fill="#263238"/>
                                          <path id="Path_82075" data-name="Path 82075" d="M41.084,36.2a7.775,7.775,0,0,1,1.878-.471c.3-.051.575-.129.612-.336a1.528,1.528,0,0,0-.259-.873L42.279,32.3a39.23,39.23,0,0,1-2.384-5.82A39.258,39.258,0,0,1,42.741,32.1q.524,1.169,1,2.233a1.734,1.734,0,0,1,.234,1.163.752.752,0,0,1-.462.47,2.03,2.03,0,0,1-.5.1,7.616,7.616,0,0,1-1.927.132" transform="translate(-31.045 -23.663)" fill="#263238"/>
                                          <path id="Path_82077" data-name="Path 82077" d="M37.8,52.915a2.113,2.113,0,0,0-1.943-.657,1.929,1.929,0,0,0-1.282.8,1.221,1.221,0,0,0,0,1.4,1.418,1.418,0,0,0,1.56.285,4.443,4.443,0,0,0,1.436-.993,1.3,1.3,0,0,0,.311-.368.393.393,0,0,0-.031-.436" transform="translate(-28.067 -37.527)" fill="#eb996e"/>
                                          <path id="Path_82078" data-name="Path 82078" d="M34.959,49.789c.19-.024.277,1.247,1.425,2.075s2.491.6,2.513.775c.023.078-.285.267-.856.321a3.17,3.17,0,0,1-2.093-.575,2.76,2.76,0,0,1-1.113-1.746c-.084-.528.036-.852.124-.851" transform="translate(-28.311 -36.215)" fill="#263238"/>
                                          <path id="Path_82079" data-name="Path 82079" d="M26.039,22.106c-.094.326-1.273.253-2.635.511-1.368.23-2.448.707-2.65.433-.09-.131.083-.444.51-.781a4.664,4.664,0,0,1,4.026-.719c.517.169.788.4.749.557" transform="translate(-20.731 -20.911)" fill="#263238"/>
                                          <path id="Path_82080" data-name="Path 82080" d="M51.471,21.46c-.188.28-1.013.058-1.984.11-.972.018-1.779.3-1.986.033-.092-.13.02-.4.362-.68a2.875,2.875,0,0,1,3.2-.115c.361.25.492.516.41.652" transform="translate(-35.13 -20.377)" fill="#263238"/>
                                        </g>
                                      </g>
                                      <g id="Group_93840" data-name="Group 93840" transform="translate(9.493 32.473)">
                                        <g id="Group_93839" data-name="Group 93839">
                                          <g id="Group_93838" data-name="Group 93838">
                                            <g id="Group_93837" data-name="Group 93837">
                                              <g id="Group_93836" data-name="Group 93836">
                                                <g id="Group_93835" data-name="Group 93835">
                                                  <g id="Group_93834" data-name="Group 93834">
                                                    <g id="Group_93833" data-name="Group 93833">
                                                      <g id="Group_93832" data-name="Group 93832">
                                                        <g id="Group_93831" data-name="Group 93831">
                                                          <g id="Group_93830" data-name="Group 93830">
                                                            <g id="Group_93829" data-name="Group 93829">
                                                              <g id="Group_93828" data-name="Group 93828">
                                                                <path id="Path_77770" data-name="Path 77770" d="M112.079,260.153a20.952,20.952,0,0,1-11.219-2.2s3.171,5.625,11.358,4.3Z" transform="translate(-100.86 -257.95)" fill="#eb996e"/>
                                                              </g>
                                                            </g>
                                                          </g>
                                                        </g>
                                                      </g>
                                                    </g>
                                                  </g>
                                                </g>
                                              </g>
                                            </g>
                                          </g>
                                        </g>
                                      </g>
                                    </g>
                                  </g>
                                </g>
                              </g>
                            </g>
                          </g>
                        </g>
                      </g>
                    </g>
                  </g>
                </g>
              </g>
              <g id="Group_93906" data-name="Group 93906" transform="translate(26.661 1.129)">
                <path id="Path_77775" data-name="Path 77775" d="M101.31,183.182c1.55,2.481,5.8,2.114,8.711,2.324.7.049,1.4.022,2.092.13a3.108,3.108,0,0,1,1.859.878,8.126,8.126,0,0,1,1.079,2.49,4.612,4.612,0,0,0,3.991,2.759,1.314,1.314,0,0,0,1.272-.528,1.5,1.5,0,0,0,.027-.963,19.04,19.04,0,0,0-2-6.234,9.948,9.948,0,0,0-5.827-4.438c-2.414-.663-8.218-.318-10.422.869" transform="translate(-101.31 -179.266)" fill="#263238"/>
              </g>
              <g id="Group_93908" data-name="Group 93908" transform="translate(2.965 1.235)">
                <g id="Group_93907" data-name="Group 93907">
                  <path id="Path_77776" data-name="Path 77776" d="M71.762,180.124a10.192,10.192,0,0,1-.264,12.8c-1.756,1.975-4.492,3.646-4.438,6.288.058,2.929,3.632,4.783,3.91,7.7.287,3-2.992,5.236-3.386,8.218-.318,2.4,1.308,4.627,3.1,6.257s3.905,3.023,5.092,5.137a9.9,9.9,0,0,1,.457,7.78,24.44,24.44,0,0,1-3.937,6.942,30.553,30.553,0,0,0-7.614-.954c.067-.976.139-1.953.206-2.929a2.669,2.669,0,0,1-1.715,2.629,7.11,7.11,0,0,1-3.323.354,54.281,54.281,0,0,1-10.2-1.621,17.914,17.914,0,0,0,3.211-4.891,6.07,6.07,0,0,0-.43-5.625c-.923-1.276-2.472-2.007-3.332-3.328-1.294-1.975-.64-4.707.752-6.615s3.395-3.265,5.115-4.886,3.238-3.74,3.162-6.1c-.094-3.063-2.822-5.607-2.8-8.675.018-3.493,3.476-5.952,4.613-9.253.824-2.387.461-4.868,1.872-6.96a6.357,6.357,0,0,1,4.77-2.8c1.863-.076,3.5-.282,5.182.542" transform="translate(-48.402 -179.502)" fill="#263238"/>
                </g>
              </g>
              <g id="Group_93910" data-name="Group 93910" transform="translate(11.124 6.102)">
                <g id="Group_93909" data-name="Group 93909">
                  <path id="Path_77777" data-name="Path 77777" d="M83.487,190.37a1.084,1.084,0,0,1-.013.278,6.383,6.383,0,0,1-.107.784,9.554,9.554,0,0,1-.963,2.75,10.648,10.648,0,0,1-2.737,3.341,9.513,9.513,0,0,1-2.181,1.348,16.33,16.33,0,0,1-2.611.846,9.382,9.382,0,0,0-2.513.963,4.008,4.008,0,0,0-1.6,1.836c-.645,1.465-.739,2.969-1.25,4.111a5.573,5.573,0,0,1-.864,1.429,3.2,3.2,0,0,1-.985.788,2.442,2.442,0,0,1-.761.237,1.3,1.3,0,0,1-.278,0,3.032,3.032,0,0,0,1-.322,3.294,3.294,0,0,0,.927-.793,5.46,5.46,0,0,0,.811-1.411c.479-1.115.551-2.616,1.2-4.138a4.254,4.254,0,0,1,1.68-1.944,9.481,9.481,0,0,1,2.571-.99,16.405,16.405,0,0,0,2.58-.829,9.632,9.632,0,0,0,2.141-1.308,10.605,10.605,0,0,0,2.723-3.252,10.144,10.144,0,0,0,1.017-2.692C83.429,190.751,83.46,190.37,83.487,190.37Z" transform="translate(-66.62 -190.37)" fill="#455a64"/>
                </g>
              </g>
              <g id="Group_93912" data-name="Group 93912" transform="translate(39.325 8.516)">
                <g id="Group_93911" data-name="Group 93911">
                  <path id="Path_77778" data-name="Path 77778" d="M139.97,201.864a2.294,2.294,0,0,0-.354-.354,2.042,2.042,0,0,0-1.294-.327c-.291.009-.609.049-.963.076a7.867,7.867,0,0,1-1.124,0,7.722,7.722,0,0,1-2.495-.632,7.52,7.52,0,0,1-3.44-3.077,7.293,7.293,0,0,1-.587-1.285,1.862,1.862,0,0,1-.125-.5,15.334,15.334,0,0,0,.851,1.7,7.7,7.7,0,0,0,5.813,3.579,8.327,8.327,0,0,0,1.1.027c.345-.018.672-.049.972-.049a2.04,2.04,0,0,1,1.353.421,1.033,1.033,0,0,1,.251.3C139.965,201.815,139.974,201.86,139.97,201.864Z" transform="translate(-129.586 -195.759)" fill="#455a64"/>
                </g>
              </g>
              <g id="Group_93914" data-name="Group 93914" transform="translate(27.306)">
                <g id="Group_93913" data-name="Group 93913">
                  <path id="Path_77779" data-name="Path 77779" d="M123.764,185.167a.958.958,0,0,1-.26,0,4.684,4.684,0,0,1-.739-.116,5.331,5.331,0,0,1-2.41-1.3,5.56,5.56,0,0,1-1.142-1.527c-.322-.6-.587-1.285-.909-1.971a5.618,5.618,0,0,0-1.339-1.912,5.361,5.361,0,0,0-2.212-1.147,8.475,8.475,0,0,0-4.824.322,30.774,30.774,0,0,0-3.708,1.6c-1.039.5-1.9.882-2.508,1.106-.3.112-.542.193-.708.237a1.287,1.287,0,0,1-.255.063.991.991,0,0,1,.237-.107c.179-.072.408-.166.69-.278.6-.251,1.438-.645,2.468-1.169a29.047,29.047,0,0,1,3.717-1.653,8.6,8.6,0,0,1,4.949-.345,5.535,5.535,0,0,1,2.307,1.2,5.8,5.8,0,0,1,1.379,1.989c.322.7.578,1.375.882,1.975a5.387,5.387,0,0,0,3.4,2.826C123.406,185.14,123.768,185.14,123.764,185.167Z" transform="translate(-102.75 -176.745)" fill="#455a64"/>
                </g>
              </g>
              <g id="Group_93916" data-name="Group 93916" transform="translate(16.455 2.285)">
                <g id="Group_93915" data-name="Group 93915">
                  <path id="Path_77780" data-name="Path 77780" d="M78.526,186.336a1.657,1.657,0,0,1,.116-.484,5.534,5.534,0,0,1,.591-1.227,5.943,5.943,0,0,1,7.972-2.011,5.246,5.246,0,0,1,1.1.8,1.7,1.7,0,0,1,.331.372,10.034,10.034,0,0,0-1.514-1.026,5.968,5.968,0,0,0-7.762,1.957A10.258,10.258,0,0,0,78.526,186.336Z" transform="translate(-78.523 -181.847)" fill="#455a64"/>
                </g>
              </g>
              <g id="Group_93918" data-name="Group 93918" transform="translate(8.585 15.081)">
                <g id="Group_93917" data-name="Group 93917">
                  <path id="Path_77781" data-name="Path 77781" d="M62.853,256.138c0-.018.193-.013.542-.09a3.323,3.323,0,0,0,1.393-.676,4.678,4.678,0,0,0,1.438-1.975,5.16,5.16,0,0,0,.345-1.491,6.535,6.535,0,0,0-.13-1.72,11.748,11.748,0,0,0-1.568-3.641c-.748-1.227-1.684-2.454-2.5-3.87a11.89,11.89,0,0,1-1.035-2.284,8.6,8.6,0,0,1-.39-2.593,9.485,9.485,0,0,1,1.617-5.209,8.846,8.846,0,0,1,1.9-2.056,14.647,14.647,0,0,1,2.324-1.393,11.841,11.841,0,0,0,2.181-1.353,4.759,4.759,0,0,0,1.4-1.962,9,9,0,0,0,.264-4.5c-.219-1.42-.542-2.732-.667-3.959a10.167,10.167,0,0,1,.161-3.314,7.046,7.046,0,0,1,.909-2.333,3.223,3.223,0,0,1,1.138-1.1,1.833,1.833,0,0,1,.381-.166.565.565,0,0,1,.134-.04c.009.018-.184.058-.488.246a3.29,3.29,0,0,0-1.084,1.106,7.111,7.111,0,0,0-.86,2.311,10.227,10.227,0,0,0-.125,3.269c.134,1.214.461,2.517.694,3.95a9.167,9.167,0,0,1-.255,4.6,4.952,4.952,0,0,1-1.46,2.051,12.263,12.263,0,0,1-2.221,1.388,14.652,14.652,0,0,0-2.284,1.375,8.675,8.675,0,0,0-1.845,2.006,9.294,9.294,0,0,0-1.581,5.079,8.311,8.311,0,0,0,.372,2.526,11.6,11.6,0,0,0,1.012,2.248c.8,1.4,1.733,2.634,2.477,3.879a11.776,11.776,0,0,1,1.563,3.708,6.436,6.436,0,0,1,.116,1.76,5.088,5.088,0,0,1-.372,1.532,4.7,4.7,0,0,1-1.5,2,3.305,3.305,0,0,1-1.442.649A2.545,2.545,0,0,1,62.853,256.138Z" transform="translate(-60.95 -210.418)" fill="#455a64"/>
                </g>
              </g>
              <g id="Group_93920" data-name="Group 93920" transform="translate(45.566 14.442)">
                <g id="Group_93919" data-name="Group 93919">
                  <path id="Path_77782" data-name="Path 77782" d="M144.3,241.8a3.162,3.162,0,0,0,.757-1.182,5.575,5.575,0,0,0-.3-3.767c-.287-.766-.672-1.585-.958-2.522a6.606,6.606,0,0,1-.278-1.5c.009-.264.018-.529.022-.8.027-.269.094-.533.143-.806a9.9,9.9,0,0,1,1.5-3.09c.663-.99,1.433-1.948,2.141-2.978a9.658,9.658,0,0,0,1.585-3.234,4.928,4.928,0,0,0-.354-3.261,11.828,11.828,0,0,0-1.7-2.535c-.614-.748-1.218-1.42-1.684-2.1a8.869,8.869,0,0,1-1.053-1.971,5.119,5.119,0,0,1-.322-1.657,3.514,3.514,0,0,1,.139-1.057,1.952,1.952,0,0,1,.134-.345,4.554,4.554,0,0,0-.184,1.4,5.115,5.115,0,0,0,.354,1.612,9.087,9.087,0,0,0,1.066,1.921c.466.672,1.079,1.335,1.7,2.078a12.042,12.042,0,0,1,1.747,2.571,5.144,5.144,0,0,1,.381,3.4,9.828,9.828,0,0,1-1.617,3.314c-.717,1.039-1.482,2-2.145,2.974a9.762,9.762,0,0,0-1.478,3.014c-.045.264-.116.52-.143.775-.009.26-.018.515-.027.77a6.391,6.391,0,0,0,.26,1.451c.273.918.649,1.742.927,2.522a5.582,5.582,0,0,1,.237,3.856,2.6,2.6,0,0,1-.564.9,2.073,2.073,0,0,1-.206.188A.291.291,0,0,1,144.3,241.8Z" transform="translate(-143.52 -208.99)" fill="#455a64"/>
                </g>
              </g>
              <g id="Group_93922" data-name="Group 93922" transform="translate(0 20.488)">
                <g id="Group_93921" data-name="Group 93921">
                  <path id="Path_77783" data-name="Path 77783" d="M42.068,257.379a1.345,1.345,0,0,1-.179-.372,2.471,2.471,0,0,1-.067-1.173,4.442,4.442,0,0,1,.721-1.715c.394-.614.949-1.232,1.411-2a5.724,5.724,0,0,0,.726-2.8,26.37,26.37,0,0,0-.251-3.39,10.06,10.06,0,0,1,.152-3.785,8.016,8.016,0,0,1,2.132-3.458,32.562,32.562,0,0,1,3.086-2.642,26.983,26.983,0,0,0,2.808-2.495,13.635,13.635,0,0,0,3.44-5.262,10.392,10.392,0,0,0,.448-2.387,12.577,12.577,0,0,0-.036-1.841c-.027-.251-.049-.475-.072-.672s-.058-.349-.081-.488c-.018-.121-.031-.219-.045-.3a.359.359,0,0,1-.009-.1.358.358,0,0,1,.031.1q.027.121.067.3c.027.139.063.3.1.488s.058.421.094.672a12.2,12.2,0,0,1,.076,1.859,10.471,10.471,0,0,1-.421,2.432,13.6,13.6,0,0,1-3.44,5.366,26.335,26.335,0,0,1-2.822,2.522,33.163,33.163,0,0,0-3.059,2.629A7.876,7.876,0,0,0,44.8,242.21a9.977,9.977,0,0,0-.157,3.7,26.243,26.243,0,0,1,.233,3.417,5.874,5.874,0,0,1-.779,2.88c-.484.788-1.044,1.393-1.442,1.989a4.486,4.486,0,0,0-.743,1.657A2.547,2.547,0,0,0,41.938,257C42.01,257.254,42.081,257.375,42.068,257.379Z" transform="translate(-41.782 -222.49)" fill="#455a64"/>
                </g>
              </g>
              <g id="Group_93924" data-name="Group 93924" transform="translate(17.29 15.884)">
                <g id="Group_93923" data-name="Group 93923">
                  <path id="Path_77784" data-name="Path 77784" d="M86.475,259.022a10.366,10.366,0,0,0,1.052-1.747A8.616,8.616,0,0,0,88.222,255a8.526,8.526,0,0,0-1.612-6.593,36.538,36.538,0,0,0-2.907-3.323,13.766,13.766,0,0,1-2.786-4.04,6.586,6.586,0,0,1-.528-2.562,5.466,5.466,0,0,1,.712-2.6c.9-1.6,2.235-2.8,3.149-4.21a6.273,6.273,0,0,0,.958-2.244,7.127,7.127,0,0,0,.031-2.347,15.582,15.582,0,0,0-1.366-4.165,36.805,36.805,0,0,1-1.5-3.565,7.625,7.625,0,0,1-.013-5.509,4.245,4.245,0,0,1,.833-1.276,3.146,3.146,0,0,1,.394-.358c.009.009-.13.13-.358.39a4.364,4.364,0,0,0-.784,1.281,7.6,7.6,0,0,0,.085,5.419,37.115,37.115,0,0,0,1.518,3.534,15.6,15.6,0,0,1,1.4,4.214,7.465,7.465,0,0,1-.022,2.423,6.488,6.488,0,0,1-.985,2.324c-.936,1.442-2.266,2.642-3.14,4.2a5.269,5.269,0,0,0-.685,2.49,6.279,6.279,0,0,0,.511,2.472,13.7,13.7,0,0,0,2.732,3.982,35.783,35.783,0,0,1,2.9,3.355,8.632,8.632,0,0,1,1.585,6.727,8.463,8.463,0,0,1-.739,2.293,7.58,7.58,0,0,1-.793,1.3l-.251.3A.749.749,0,0,1,86.475,259.022Z" transform="translate(-80.388 -212.21)" fill="#455a64"/>
                </g>
              </g>
            </g>
            <g id="Group_93994" data-name="Group 93994" transform="translate(0 51.667)">
              <g id="Group_93951" data-name="Group 93951" transform="translate(23.476 20.436)">
                <g id="Group_93944" data-name="Group 93944">
                  <g id="Group_93931" data-name="Group 93931" transform="translate(0 2.154)">
                    <g id="Group_93928" data-name="Group 93928">
                      <g id="Group_93926" data-name="Group 93926">
                        <path id="Path_77785" data-name="Path 77785" d="M82.512,354.418l7.677-18.488,25.757,11.8-14.377,33.358L75.4,371.572Z" transform="translate(-75.4 -335.93)" fill="#e8505b"/>
                      </g>
                      <g id="Group_93927" data-name="Group 93927" opacity="0.3">
                        <path id="Path_77786" data-name="Path 77786" d="M82.512,354.418l7.677-18.488,25.757,11.8-14.377,33.358L75.4,371.572Z" transform="translate(-75.4 -335.93)"/>
                      </g>
                    </g>
                    <g id="Group_93929" data-name="Group 93929" transform="translate(26.169 11.797)">
                      <path id="Path_77787" data-name="Path 77787" d="M148.207,362.27,133.83,395.628,139,397.468l14.18-32.811Z" transform="translate(-133.83 -362.27)" fill="#e8505b"/>
                    </g>
                    <g id="Group_93930" data-name="Group 93930" transform="translate(26.169 11.797)" opacity="0.5">
                      <path id="Path_77788" data-name="Path 77788" d="M148.207,362.27,133.83,395.628,139,397.468l14.18-32.811Z" transform="translate(-133.83 -362.27)"/>
                    </g>
                  </g>
                  <g id="Group_93932" data-name="Group 93932" transform="translate(18.511)">
                    <path id="Path_77789" data-name="Path 77789" d="M116.73,334.654l1.76-3.534,24.051,11.667-1.227,3.149Z" transform="translate(-116.73 -331.12)" fill="#e0e0e0"/>
                  </g>
                  <g id="Group_93933" data-name="Group 93933" transform="translate(15.81 1.026)">
                    <path id="Path_77790" data-name="Path 77790" d="M110.7,335l.694-1.594,27.446,12.926-.5,1.4Z" transform="translate(-110.7 -333.41)" fill="#fafafa"/>
                  </g>
                  <g id="Group_93935" data-name="Group 93935" transform="translate(31.672 20.575)">
                    <g id="Group_93934" data-name="Group 93934">
                      <path id="Path_77791" data-name="Path 77791" d="M155.6,377.06c.058.027-2.015,5.106-4.635,11.349s-4.792,11.282-4.85,11.26,2.015-5.106,4.636-11.349S155.546,377.038,155.6,377.06Z" transform="translate(-146.117 -377.06)" fill="#fff"/>
                    </g>
                  </g>
                  <g id="Group_93942" data-name="Group 93942" transform="translate(12.567 9.678)">
                    <g id="Group_93937" data-name="Group 93937">
                      <g id="Group_93936" data-name="Group 93936">
                        <path id="Path_77792" data-name="Path 77792" d="M108.337,352.729s.027.009.081.031.143.063.242.1c.228.1.542.237.945.417.842.376,2.056.918,3.579,1.594,3.095,1.393,7.453,3.355,12.581,5.661l.1.045-.045.1c-1.514,3.467-3.184,7.282-4.936,11.3l-.045.108-.107-.045-.031-.013c-6.445-2.745-12.4-5.28-17.154-7.3l-.085-.036.036-.085c1.469-3.614,2.674-6.588,3.52-8.671.417-1.017.748-1.814.976-2.374.107-.26.193-.466.255-.614a1.036,1.036,0,0,1,.09-.21s-.027.081-.081.228-.139.367-.242.64c-.219.569-.537,1.379-.941,2.41-.82,2.078-1.989,5.048-3.408,8.657l-.049-.121c4.761,2.015,10.718,4.533,17.171,7.264l.031.013-.152.063c1.76-4.008,3.431-7.824,4.953-11.286l.054.139c-5.079-2.333-9.4-4.322-12.464-5.728-1.523-.708-2.737-1.267-3.579-1.657-.408-.193-.726-.34-.954-.448-.1-.049-.184-.09-.246-.121A.475.475,0,0,1,108.337,352.729Z" transform="translate(-103.46 -352.728)" fill="#fff"/>
                      </g>
                    </g>
                    <g id="Group_93939" data-name="Group 93939" transform="translate(1.393 8.219)">
                      <g id="Group_93938" data-name="Group 93938">
                        <path id="Path_77793" data-name="Path 77793" d="M123.016,377.914a1.818,1.818,0,0,1-.161-.358c-.1-.269-.233-.614-.4-1.035-.34-.932-.811-2.208-1.366-3.731l.125.063L116.4,374.43l-.085.027-.049-.076c-.13-.211-.269-.434-.412-.663-.52-.846-1.026-1.666-1.5-2.436l.139.045c-2.253.869-4.219,1.626-5.657,2.181-.681.255-1.236.461-1.657.614a4.042,4.042,0,0,1-.6.2,3.653,3.653,0,0,1,.578-.269c.412-.17.958-.4,1.63-.676l5.625-2.257.09-.036.049.081c.475.766.981,1.585,1.5,2.432.139.228.278.452.408.663l-.134-.049,4.828-1.545.094-.031.031.09c.528,1.536.967,2.817,1.29,3.758.143.43.255.784.345,1.057A2.049,2.049,0,0,1,123.016,377.914Z" transform="translate(-106.57 -371.08)" fill="#fff"/>
                      </g>
                    </g>
                    <g id="Group_93941" data-name="Group 93941" transform="translate(11.071 6.639)">
                      <g id="Group_93940" data-name="Group 93940">
                        <path id="Path_77794" data-name="Path 77794" d="M130.245,368.625c-.018,0-.027-.085-.076-.228a1.009,1.009,0,0,0-.358-.484.9.9,0,0,0-.833-.107.887.887,0,0,0-.564.815.874.874,0,0,0,.564.815.888.888,0,0,0,.833-.1.953.953,0,0,0,.358-.484c.049-.139.054-.224.076-.224s.036.09.013.251a.953.953,0,0,1-.349.591,1.044,1.044,0,0,1-1.008.175,1.077,1.077,0,0,1,0-2.033,1.055,1.055,0,0,1,1.008.175,1,1,0,0,1,.349.591C130.28,368.536,130.258,368.625,130.245,368.625Z" transform="translate(-128.18 -367.551)" fill="#fff"/>
                      </g>
                    </g>
                  </g>
                  <g id="Group_93943" data-name="Group 93943" transform="translate(29.466 10.507)">
                    <path id="Path_77795" data-name="Path 77795" d="M150.13,357.079s-1.756-3.413-4.909-2.262c-1.241.452-4.031,8.863-4.031,8.863l1.8-.569,1.12,1.868s3.592-8.823,4.134-8.747Z" transform="translate(-141.19 -354.581)" fill="#1794c9"/>
                  </g>
                </g>
                <g id="Group_93946" data-name="Group 93946" transform="translate(10.861 24.13)">
                  <g id="Group_93945" data-name="Group 93945">
                    <path id="Path_77796" data-name="Path 77796" d="M118.474,392.42a5.852,5.852,0,0,1-.757-.251c-.515-.193-1.2-.448-2.033-.761-1.711-.654-4.071-1.568-6.669-2.593s-4.949-1.966-6.642-2.656c-.82-.34-1.5-.618-2-.829A5.906,5.906,0,0,1,99.65,385a5.361,5.361,0,0,1,.757.251c.515.193,1.2.448,2.033.761,1.711.654,4.071,1.568,6.669,2.593s4.945,1.962,6.637,2.651c.82.34,1.5.618,2,.829A5.024,5.024,0,0,1,118.474,392.42Z" transform="translate(-99.65 -384.997)" fill="#fff"/>
                  </g>
                </g>
                <g id="Group_93948" data-name="Group 93948" transform="translate(9.808 25.563)">
                  <g id="Group_93947" data-name="Group 93947">
                    <path id="Path_77797" data-name="Path 77797" d="M116.124,395.62a5.853,5.853,0,0,1-.757-.251c-.515-.193-1.2-.448-2.033-.761-1.711-.654-4.071-1.568-6.669-2.593s-4.949-1.966-6.642-2.656c-.82-.34-1.5-.618-2-.829a5.918,5.918,0,0,1-.721-.331,5.352,5.352,0,0,1,.757.251c.515.193,1.2.448,2.033.761,1.711.654,4.071,1.568,6.669,2.593s4.945,1.962,6.637,2.651c.82.34,1.5.618,2,.829A6.65,6.65,0,0,1,116.124,395.62Z" transform="translate(-97.3 -388.197)" fill="#fff"/>
                  </g>
                </g>
                <g id="Group_93950" data-name="Group 93950" transform="translate(9.235 27.489)">
                  <g id="Group_93949" data-name="Group 93949">
                    <path id="Path_77798" data-name="Path 77798" d="M114.844,399.92a5.848,5.848,0,0,1-.757-.251c-.515-.193-1.2-.448-2.033-.761-1.711-.654-4.071-1.568-6.669-2.593s-4.949-1.966-6.642-2.656c-.82-.34-1.5-.618-2-.829a5.9,5.9,0,0,1-.721-.331,5.369,5.369,0,0,1,.757.251c.515.193,1.2.448,2.033.761,1.711.654,4.071,1.568,6.669,2.593s4.945,1.962,6.637,2.651c.82.34,1.5.618,2,.829A6.648,6.648,0,0,1,114.844,399.92Z" transform="translate(-96.02 -392.497)" fill="#fff"/>
                  </g>
                </g>
              </g>
              <g id="Group_93965" data-name="Group 93965">
                <g id="Group_93963" data-name="Group 93963" transform="translate(36.155 50.077)">
                  <g id="Group_93953" data-name="Group 93953" transform="translate(0)">
                    <g id="Group_93952" data-name="Group 93952">
                      <path id="Path_77799" data-name="Path 77799" d="M107.125,397.32,111,399.268a23.47,23.47,0,0,1,4.622-1.729c1.536-.228,8.151.627,8.151.627a1.666,1.666,0,0,1-1.147,1.774,26.063,26.063,0,0,1-3.847-.022h0a1.639,1.639,0,0,0,.448,2.754c1.653.685,3.574,1.5,3.8,1.644a20.641,20.641,0,0,0,4.407-.632,1.1,1.1,0,0,1,1,1.85.541.541,0,0,1-.273.134s1.594.954-1.156,2.15c0,0-.932,2.141-2.647,2.289,0,0-2.006,2.015-3.261,2.347s-9.405-2.781-9.405-2.781l-7.927-4.111Z" transform="translate(-103.743 -397.311)" fill="#ffbe9d"/>
                      <path id="Path_77800" data-name="Path 77800" d="M120.828,412.474c-1.8,0-9.1-2.777-9.177-2.8l-7.941-4.116,0-.009,3.368-8.245.009,0,3.87,1.944a23.749,23.749,0,0,1,4.618-1.729,5.173,5.173,0,0,1,.726-.04c2.248,0,7.368.658,7.426.667h.009v.009a1.682,1.682,0,0,1-1.156,1.783,26.43,26.43,0,0,1-3.847-.018,1.628,1.628,0,0,0,.448,2.732c1.608.667,3.574,1.5,3.807,1.644a18.27,18.27,0,0,0,4.4-.636,1.037,1.037,0,0,1,.228-.022,1.156,1.156,0,0,1,1.021.663.99.99,0,0,1-.237,1.227.542.542,0,0,1-.251.13.925.925,0,0,1,.439.752c-.031.475-.573.945-1.612,1.4a5.337,5.337,0,0,1-.681,1.088,3.006,3.006,0,0,1-1.971,1.2c-.09.09-2.042,2.024-3.265,2.347A.79.79,0,0,1,120.828,412.474Zm-17.082-6.933,7.918,4.107c.076.031,7.368,2.8,9.163,2.8a1.154,1.154,0,0,0,.237-.022c1.236-.327,3.238-2.324,3.256-2.342l0,0h0a2.96,2.96,0,0,0,1.957-1.2,5.308,5.308,0,0,0,.681-1.088v0h0c1.035-.448,1.577-.914,1.6-1.384a.935.935,0,0,0-.452-.748l-.027-.018.031,0a.541.541,0,0,0,.264-.13.961.961,0,0,0,.228-1.2,1.109,1.109,0,0,0-1.223-.627,33.473,33.473,0,0,1-4.161.667.6.6,0,0,1-.251-.036c-.179-.116-1.5-.685-3.8-1.644a1.655,1.655,0,0,1-.452-2.777l0,0h0a26.068,26.068,0,0,0,3.843.022,1.533,1.533,0,0,0,1.061-1.03,1.923,1.923,0,0,0,.081-.721c-.242-.031-5.213-.667-7.417-.667a5.987,5.987,0,0,0-.721.036,23.94,23.94,0,0,0-4.618,1.729l0,0,0,0-3.861-1.939Z" transform="translate(-103.71 -397.3)" fill="#eb996e"/>
                    </g>
                  </g>
                  <g id="Group_93956" data-name="Group 93956" transform="translate(14.68 7.988)">
                    <g id="Group_93955" data-name="Group 93955">
                      <g id="Group_93954" data-name="Group 93954">
                        <path id="Path_77801" data-name="Path 77801" d="M136.489,415.141a4.952,4.952,0,0,0,1.263.86,8.046,8.046,0,0,0,3.525,1.16,7.468,7.468,0,0,0,3.587-.941,5.06,5.06,0,0,0,1.3-.806,6.975,6.975,0,0,0-1.415.551,8.265,8.265,0,0,1-3.458.8,9.138,9.138,0,0,1-3.408-1.012A6.538,6.538,0,0,0,136.489,415.141Z" transform="translate(-136.488 -415.134)" fill="#eb996e"/>
                      </g>
                    </g>
                  </g>
                  <g id="Group_93959" data-name="Group 93959" transform="translate(14.339 10.126)">
                    <g id="Group_93958" data-name="Group 93958">
                      <g id="Group_93957" data-name="Group 93957">
                        <path id="Path_77802" data-name="Path 77802" d="M135.727,419.915c-.036.04.349.43,1.111.851a10.124,10.124,0,0,0,1.379.636,4.723,4.723,0,0,0,1.868.354,8.005,8.005,0,0,0,1.827-.417q.739-.242,1.424-.47a5.222,5.222,0,0,0,1.285-.524,4.772,4.772,0,0,0-1.366.26c-.412.1-.909.233-1.451.39a9.451,9.451,0,0,1-1.751.372,4.743,4.743,0,0,1-1.72-.3,14.252,14.252,0,0,1-1.375-.542C136.193,420.17,135.763,419.87,135.727,419.915Z" transform="translate(-135.725 -419.91)" fill="#eb996e"/>
                      </g>
                    </g>
                  </g>
                  <g id="Group_93962" data-name="Group 93962" transform="translate(14.151 12.621)">
                    <g id="Group_93961" data-name="Group 93961">
                      <g id="Group_93960" data-name="Group 93960">
                        <path id="Path_77803" data-name="Path 77803" d="M135.308,425.489a10.767,10.767,0,0,0,3.175,1.263,1.513,1.513,0,0,0,.77.022,5.261,5.261,0,0,0,.645-.143,6.2,6.2,0,0,0,1.039-.39c.573-.273.864-.555.833-.591a5.275,5.275,0,0,0-.936.336,10.069,10.069,0,0,1-1.021.3,6.122,6.122,0,0,1-.609.112,1.239,1.239,0,0,1-.591-.013c-.909-.291-1.724-.515-2.324-.676A3.9,3.9,0,0,0,135.308,425.489Z" transform="translate(-135.306 -425.48)" fill="#eb996e"/>
                      </g>
                    </g>
                  </g>
                </g>
                <g id="Group_93964" data-name="Group 93964">
                  <path id="Path_77804" data-name="Path 77804" d="M39.222,285.49s-4.55,2.929-7.265,11.009c-2.311,6.87-7.126,17.96-8.716,25.86-1.16,5.76,1.563,12.567,8.729,14.511l27.186,8.169,4.156-10.2-24.4-12.393L45.6,307.207Z" transform="translate(-22.984 -285.49)" fill="#e32726"/>
                </g>
              </g>
              <g id="Group_93967" data-name="Group 93967" transform="translate(6.569 36.798)">
                <g id="Group_93966" data-name="Group 93966">
                  <path id="Path_77805" data-name="Path 77805" d="M37.65,381.316a.784.784,0,0,1,.152.036c.107.031.251.072.434.121.394.116.958.282,1.68.5,1.473.443,3.592,1.084,6.234,1.877,5.307,1.617,12.706,3.874,21.135,6.445l-.139.067c.851-2.092,1.738-4.268,2.647-6.494.511-1.254,1.017-2.495,1.514-3.708l.058.148c-5.1-2.526-9.817-4.98-13.951-7.117s-7.694-3.959-10.426-5.321l.013,0a5.114,5.114,0,0,0-2.719.2,5.85,5.85,0,0,0-1.792,1,5.449,5.449,0,0,0-.56.493,4.806,4.806,0,0,0-.376.39c-.094.1-.166.184-.224.246a.544.544,0,0,1-.081.081s.018-.031.067-.09.121-.152.211-.26a3.846,3.846,0,0,1,.367-.4,5.353,5.353,0,0,1,.555-.506,5.852,5.852,0,0,1,1.8-1.044,5.234,5.234,0,0,1,2.786-.228h0l.009,0c2.75,1.344,6.319,3.135,10.462,5.262s8.859,4.568,13.96,7.085l.1.049-.04.1c-.493,1.209-1,2.454-1.509,3.708-.909,2.226-1.8,4.4-2.647,6.494l-.04.1-.1-.031c-8.42-2.6-15.81-4.886-21.113-6.521-2.633-.824-4.747-1.487-6.216-1.944l-1.671-.533c-.184-.058-.322-.107-.43-.143A1.059,1.059,0,0,1,37.65,381.316Z" transform="translate(-37.65 -367.652)" fill="#263238"/>
                </g>
              </g>
              <g id="Group_93969" data-name="Group 93969" transform="translate(15.874 13.615)">
                <g id="Group_93968" data-name="Group 93968">
                  <path id="Path_77806" data-name="Path 77806" d="M66.32,315.89a.982.982,0,0,1,.081.242,4.775,4.775,0,0,1,.152.712,9.361,9.361,0,0,1,.009,2.683,17.488,17.488,0,0,1-1.048,3.834c-.537,1.4-1.227,2.889-1.917,4.465-1.4,3.131-2.674,5.961-3.61,8.048-.461,1-.842,1.823-1.12,2.427-.125.264-.233.484-.314.654a1.256,1.256,0,0,1-.125.224,1.066,1.066,0,0,1,.081-.242c.072-.179.161-.4.273-.672.26-.609.618-1.442,1.048-2.459.918-2.092,2.168-4.936,3.547-8.075.694-1.576,1.388-3.063,1.93-4.447A18.356,18.356,0,0,0,66.4,319.5a9.81,9.81,0,0,0,.067-2.642c-.031-.314-.081-.551-.112-.717A1.538,1.538,0,0,1,66.32,315.89Z" transform="translate(-58.427 -315.89)" fill="#263238"/>
                </g>
              </g>
            </g>
          </g>
        </g>
      </g>
      <g id="Plant" transform="translate(0 54.236)">
        <g id="Group_29866" data-name="Group 29866" transform="translate(0 0)">
          <g id="Group_29675" data-name="Group 29675" transform="translate(2.351 38.933)">
            <g id="Group_29674" data-name="Group 29674">
              <g id="Group_29673" data-name="Group 29673">
                <g id="Group_29672" data-name="Group 29672">
                  <path id="Path_42973" data-name="Path 42973" d="M223.9,258.6l2.873,19.067H243.62l3.918-18.74Z" transform="translate(-223.9 -258.6)" fill="#455a64"/>
                </g>
              </g>
            </g>
          </g>
          <g id="Group_29731" data-name="Group 29731" transform="translate(4.179 49.054)">
            <g id="Group_29680" data-name="Group 29680" transform="translate(0.131 1.959)">
              <g id="Group_29679" data-name="Group 29679">
                <g id="Group_29678" data-name="Group 29678">
                  <g id="Group_29677" data-name="Group 29677">
                    <g id="Group_29676" data-name="Group 29676">
                      <path id="Path_42974" data-name="Path 42974" d="M246.228,277.231c0,.065-4.31.131-9.664.131s-9.664-.065-9.664-.131,4.31-.131,9.664-.131C241.918,277.165,246.228,277.231,246.228,277.231Z" transform="translate(-226.9 -277.1)" fill="#fafafa"/>
                    </g>
                  </g>
                </g>
              </g>
            </g>
            <g id="Group_29685" data-name="Group 29685" transform="translate(0.065 1.045)">
              <g id="Group_29684" data-name="Group 29684">
                <g id="Group_29683" data-name="Group 29683">
                  <g id="Group_29682" data-name="Group 29682">
                    <g id="Group_29681" data-name="Group 29681">
                      <path id="Path_42975" data-name="Path 42975" d="M246.259,275.831c0,.065-4.375.13-9.729.13s-9.729-.065-9.729-.13,4.375-.131,9.729-.131S246.259,275.765,246.259,275.831Z" transform="translate(-226.8 -275.7)" fill="#fafafa"/>
                    </g>
                  </g>
                </g>
              </g>
            </g>
            <g id="Group_29690" data-name="Group 29690">
              <g id="Group_29689" data-name="Group 29689">
                <g id="Group_29688" data-name="Group 29688">
                  <g id="Group_29687" data-name="Group 29687">
                    <g id="Group_29686" data-name="Group 29686">
                      <path id="Path_42976" data-name="Path 42976" d="M246.158,274.231c0,.065-4.375.131-9.729.131s-9.729-.065-9.729-.131,4.375-.131,9.729-.131C241.849,274.1,246.158,274.165,246.158,274.231Z" transform="translate(-226.7 -274.1)" fill="#fafafa"/>
                    </g>
                  </g>
                </g>
              </g>
            </g>
            <g id="Group_29695" data-name="Group 29695" transform="translate(2.138 3.004)">
              <g id="Group_29694" data-name="Group 29694">
                <g id="Group_29693" data-name="Group 29693">
                  <g id="Group_29692" data-name="Group 29692">
                    <g id="Group_29691" data-name="Group 29691">
                      <path id="Path_42977" data-name="Path 42977" d="M230.84,283.532a17.106,17.106,0,0,1-.522-2.416,11.115,11.115,0,0,1-.327-2.416,17.087,17.087,0,0,1,.522,2.416A21.512,21.512,0,0,1,230.84,283.532Z" transform="translate(-229.975 -278.7)" fill="#fafafa"/>
                    </g>
                  </g>
                </g>
              </g>
            </g>
            <g id="Group_29700" data-name="Group 29700" transform="translate(3.769 2.938)">
              <g id="Group_29699" data-name="Group 29699">
                <g id="Group_29698" data-name="Group 29698">
                  <g id="Group_29697" data-name="Group 29697">
                    <g id="Group_29696" data-name="Group 29696">
                      <path id="Path_42978" data-name="Path 42978" d="M232.817,283.3a14.2,14.2,0,0,1-.2-2.351c-.065-1.306-.2-2.351-.131-2.351a13.6,13.6,0,0,1,.326,2.351A7.823,7.823,0,0,1,232.817,283.3Z" transform="translate(-232.473 -278.6)" fill="#fafafa"/>
                    </g>
                  </g>
                </g>
              </g>
            </g>
            <g id="Group_29705" data-name="Group 29705" transform="translate(5.59 2.808)">
              <g id="Group_29704" data-name="Group 29704">
                <g id="Group_29703" data-name="Group 29703">
                  <g id="Group_29702" data-name="Group 29702">
                    <g id="Group_29701" data-name="Group 29701">
                      <path id="Path_42979" data-name="Path 42979" d="M235.874,283.232a18.355,18.355,0,0,1-.588-4.832,15.112,15.112,0,0,1,.326,2.416A14.343,14.343,0,0,1,235.874,283.232Z" transform="translate(-235.261 -278.4)" fill="#fafafa"/>
                    </g>
                  </g>
                </g>
              </g>
            </g>
            <g id="Group_29710" data-name="Group 29710" transform="translate(7.417 2.936)">
              <g id="Group_29709" data-name="Group 29709">
                <g id="Group_29708" data-name="Group 29708">
                  <g id="Group_29707" data-name="Group 29707">
                    <g id="Group_29706" data-name="Group 29706">
                      <path id="Path_42980" data-name="Path 42980" d="M238.347,283.431a11.8,11.8,0,0,1-.261-2.416,9.271,9.271,0,0,1,.065-2.416,23.179,23.179,0,0,1,.131,2.416A17.1,17.1,0,0,1,238.347,283.431Z" transform="translate(-238.059 -278.596)" fill="#fafafa"/>
                    </g>
                  </g>
                </g>
              </g>
            </g>
            <g id="Group_29715" data-name="Group 29715" transform="translate(10.007 3.004)">
              <g id="Group_29714" data-name="Group 29714">
                <g id="Group_29713" data-name="Group 29713">
                  <g id="Group_29712" data-name="Group 29712">
                    <g id="Group_29711" data-name="Group 29711">
                      <path id="Path_42981" data-name="Path 42981" d="M242.27,283.336a13.879,13.879,0,0,1-.2-2.285,11.678,11.678,0,0,1,0-2.351,13.876,13.876,0,0,1,.2,2.285A11.686,11.686,0,0,1,242.27,283.336Z" transform="translate(-242.025 -278.7)" fill="#fafafa"/>
                    </g>
                  </g>
                </g>
              </g>
            </g>
            <g id="Group_29720" data-name="Group 29720" transform="translate(12.145 2.938)">
              <g id="Group_29719" data-name="Group 29719">
                <g id="Group_29718" data-name="Group 29718">
                  <g id="Group_29717" data-name="Group 29717">
                    <g id="Group_29716" data-name="Group 29716">
                      <path id="Path_42982" data-name="Path 42982" d="M245.365,283.432a15.616,15.616,0,0,1-.065-2.416,12.088,12.088,0,0,1,.131-2.416,15.614,15.614,0,0,1,.065,2.416C245.431,282.322,245.365,283.432,245.365,283.432Z" transform="translate(-245.3 -278.6)" fill="#fafafa"/>
                    </g>
                  </g>
                </g>
              </g>
            </g>
            <g id="Group_29725" data-name="Group 29725" transform="translate(13.948 2.547)">
              <g id="Group_29724" data-name="Group 29724">
                <g id="Group_29723" data-name="Group 29723">
                  <g id="Group_29722" data-name="Group 29722">
                    <g id="Group_29721" data-name="Group 29721">
                      <path id="Path_42983" data-name="Path 42983" d="M248.086,282.963a13.806,13.806,0,0,1,.131-2.481,15.246,15.246,0,0,1,.326-2.481,13.8,13.8,0,0,1-.131,2.481A15.245,15.245,0,0,1,248.086,282.963Z" transform="translate(-248.061 -278)" fill="#fafafa"/>
                    </g>
                  </g>
                </g>
              </g>
            </g>
            <g id="Group_29730" data-name="Group 29730" transform="translate(16.235 3.066)">
              <g id="Group_29729" data-name="Group 29729">
                <g id="Group_29728" data-name="Group 29728">
                  <g id="Group_29727" data-name="Group 29727">
                    <g id="Group_29726" data-name="Group 29726">
                      <path id="Path_42984" data-name="Path 42984" d="M251.587,282.977a7.151,7.151,0,0,1,.261-2.155,6.325,6.325,0,0,1,.653-2.024,18.4,18.4,0,0,1-.457,2.09A21.112,21.112,0,0,1,251.587,282.977Z" transform="translate(-251.564 -278.795)" fill="#fafafa"/>
                    </g>
                  </g>
                </g>
              </g>
            </g>
          </g>
          <g id="Group_29773" data-name="Group 29773" transform="translate(8.897)">
            <g id="Group_29736" data-name="Group 29736" transform="translate(5.469 1.388)">
              <g id="Group_29735" data-name="Group 29735">
                <g id="Group_29734" data-name="Group 29734">
                  <g id="Group_29733" data-name="Group 29733">
                    <g id="Group_29732" data-name="Group 29732">
                      <path id="Path_42985" data-name="Path 42985" d="M246.74,201.1v.065c0,.065-.065.131-.065.261-.065.261-.2.588-.326,1.045s-.327.979-.522,1.632-.392,1.371-.588,2.155-.457,1.7-.653,2.677c-.261.979-.457,1.959-.653,3.069-.392,2.155-.784,4.571-1.045,7.117a70.936,70.936,0,0,0-.392,7.183v3.134c0,.979.065,1.894.131,2.742s.131,1.567.2,2.22.131,1.241.131,1.7c.065.457.065.784.131,1.045v.261a.393.393,0,0,0-.065-.261c-.065-.261-.065-.588-.131-1.045s-.131-1.045-.2-1.7-.131-1.437-.2-2.22c-.065-.849-.131-1.763-.131-2.742-.065-.979-.065-2.024-.065-3.134a70.936,70.936,0,0,1,.392-7.183c.261-2.547.653-4.963,1.045-7.117.2-1.11.457-2.09.653-3.069s.457-1.828.653-2.677c.2-.784.457-1.5.653-2.155s.392-1.175.522-1.632.261-.784.326-1.045a.494.494,0,0,0,.065-.261Z" transform="translate(-242.3 -201.1)" fill="#455a64"/>
                    </g>
                  </g>
                </g>
              </g>
            </g>
            <g id="Group_29740" data-name="Group 29740" transform="translate(6.513 9.535)">
              <g id="Group_29739" data-name="Group 29739">
                <g id="Group_29738" data-name="Group 29738">
                  <g id="Group_29737" data-name="Group 29737">
                    <path id="Path_42986" data-name="Path 42986" d="M244.226,217.249a6.281,6.281,0,0,1,2.612-3.33,1.494,1.494,0,0,1,1.371-.261c.588.261.653,1.11.457,1.763a4.8,4.8,0,0,1-1.894,2.612,4.067,4.067,0,0,1-2.873.718" transform="translate(-243.9 -213.578)" fill="#d2e7bb"/>
                  </g>
                </g>
              </g>
            </g>
            <g id="Group_29744" data-name="Group 29744" transform="translate(5.795 15.663)">
              <g id="Group_29743" data-name="Group 29743">
                <g id="Group_29742" data-name="Group 29742">
                  <g id="Group_29741" data-name="Group 29741">
                    <path id="Path_42987" data-name="Path 42987" d="M242.865,228.407A10.971,10.971,0,0,1,246,223.379a2.536,2.536,0,0,1,.718-.392.858.858,0,0,1,.784.2,1.293,1.293,0,0,1,.2,1.11,6.651,6.651,0,0,1-4.9,4.963" transform="translate(-242.8 -222.962)" fill="#d2e7bb"/>
                  </g>
                </g>
              </g>
            </g>
            <g id="Group_29748" data-name="Group 29748" transform="translate(5.534 23.837)">
              <g id="Group_29747" data-name="Group 29747">
                <g id="Group_29746" data-name="Group 29746">
                  <g id="Group_29745" data-name="Group 29745">
                    <path id="Path_42988" data-name="Path 42988" d="M242.4,239.8a9.216,9.216,0,0,1,3.134-3.918,1.462,1.462,0,0,1,1.11-.392,1.274,1.274,0,0,1,.784,1.437,4.737,4.737,0,0,1-2.024,3,11.9,11.9,0,0,1-2.873,1.5" transform="translate(-242.4 -235.481)" fill="#d2e7bb"/>
                  </g>
                </g>
              </g>
            </g>
            <g id="Group_29752" data-name="Group 29752" transform="translate(5.73 29.775)">
              <g id="Group_29751" data-name="Group 29751">
                <g id="Group_29750" data-name="Group 29750">
                  <g id="Group_29749" data-name="Group 29749">
                    <path id="Path_42989" data-name="Path 42989" d="M242.7,247.987a10.105,10.105,0,0,1,2.677-3.069,1.357,1.357,0,0,1,.784-.326.8.8,0,0,1,.784.326c.261.392,0,.914-.261,1.306a7.748,7.748,0,0,1-3.787,2.808" transform="translate(-242.7 -244.574)" fill="#d2e7bb"/>
                  </g>
                </g>
              </g>
            </g>
            <g id="Group_29756" data-name="Group 29756" transform="translate(0.702 26.942)">
              <g id="Group_29755" data-name="Group 29755">
                <g id="Group_29754" data-name="Group 29754">
                  <g id="Group_29753" data-name="Group 29753">
                    <path id="Path_42990" data-name="Path 42990" d="M239.9,244.457a30.76,30.76,0,0,0-3.787-3.918c-.2-.2-.522-.392-.784-.261a.517.517,0,0,0-.326.522,2.324,2.324,0,0,0,.131.653,7.365,7.365,0,0,0,4.9,4.114" transform="translate(-235 -240.235)" fill="#d2e7bb"/>
                  </g>
                </g>
              </g>
            </g>
            <g id="Group_29760" data-name="Group 29760" transform="translate(0 19.825)">
              <g id="Group_29759" data-name="Group 29759">
                <g id="Group_29758" data-name="Group 29758">
                  <g id="Group_29757" data-name="Group 29757">
                    <path id="Path_42991" data-name="Path 42991" d="M239.655,234.079c-.979-1.241-2.024-2.416-3-3.657a3.276,3.276,0,0,0-.979-.914,1.329,1.329,0,0,0-1.306,0,1.053,1.053,0,0,0-.392,1.175,2.508,2.508,0,0,0,.588,1.175,10.494,10.494,0,0,0,2.155,2.351,3.831,3.831,0,0,0,2.742.849" transform="translate(-233.925 -229.336)" fill="#d2e7bb"/>
                  </g>
                </g>
              </g>
            </g>
            <g id="Group_29764" data-name="Group 29764" transform="translate(0.871 12.207)">
              <g id="Group_29763" data-name="Group 29763">
                <g id="Group_29762" data-name="Group 29762">
                  <g id="Group_29761" data-name="Group 29761">
                    <path id="Path_42992" data-name="Path 42992" d="M240.509,222.652a10.176,10.176,0,0,0-3-4.505,1.909,1.909,0,0,0-.784-.457,1.316,1.316,0,0,0-1.371.979,2.571,2.571,0,0,0,.261,1.959,5.208,5.208,0,0,0,1.436,1.5,12.714,12.714,0,0,0,3.33,1.828" transform="translate(-235.259 -217.669)" fill="#d2e7bb"/>
                  </g>
                </g>
              </g>
            </g>
            <g id="Group_29768" data-name="Group 29768" transform="translate(2.726 4.318)">
              <g id="Group_29767" data-name="Group 29767">
                <g id="Group_29766" data-name="Group 29766">
                  <g id="Group_29765" data-name="Group 29765">
                    <path id="Path_42993" data-name="Path 42993" d="M242.671,211.864a12.1,12.1,0,0,0-2.677-5.616,1.212,1.212,0,0,0-1.11-.653,1.037,1.037,0,0,0-.653.522,1.929,1.929,0,0,0-.131.849,6.658,6.658,0,0,0,4.244,5.877" transform="translate(-238.1 -205.587)" fill="#d2e7bb"/>
                  </g>
                </g>
              </g>
            </g>
            <g id="Group_29772" data-name="Group 29772" transform="translate(7.99)">
              <g id="Group_29771" data-name="Group 29771">
                <g id="Group_29770" data-name="Group 29770">
                  <g id="Group_29769" data-name="Group 29769">
                    <path id="Path_42994" data-name="Path 42994" d="M246.317,206.239a18.214,18.214,0,0,1-.131-3.265,5.849,5.849,0,0,1,1.11-3.069,2.055,2.055,0,0,1,1.11-.849,1.32,1.32,0,0,1,1.306.2,1.481,1.481,0,0,1,.457,1.175,3.866,3.866,0,0,1-.326,1.241c-.784,1.894-2.089,4.048-3.526,4.571" transform="translate(-246.161 -198.975)" fill="#d2e7bb"/>
                  </g>
                </g>
              </g>
            </g>
          </g>
          <g id="Group_29815" data-name="Group 29815" transform="translate(0 8.583)">
            <g id="Group_29778" data-name="Group 29778" transform="translate(3.787 1.228)">
              <g id="Group_29777" data-name="Group 29777">
                <g id="Group_29776" data-name="Group 29776">
                  <g id="Group_29775" data-name="Group 29775">
                    <g id="Group_29774" data-name="Group 29774">
                      <path id="Path_42995" data-name="Path 42995" d="M226.3,214v2.285a14.772,14.772,0,0,0,.065,1.632c.065,1.175.2,2.612.326,4.179.2,1.567.457,3.265.849,5.028s.849,3.461,1.241,4.963c.457,1.5.914,2.873,1.371,3.983.2.588.392,1.045.588,1.5s.327.784.457,1.11a7.667,7.667,0,0,0,.326.718c.065.131.131.261.065.261a.714.714,0,0,1-.131-.261c-.065-.2-.2-.392-.326-.718s-.326-.653-.522-1.11-.392-.914-.653-1.5c-.457-1.11-.914-2.481-1.371-3.983s-.914-3.2-1.306-4.963-.653-3.526-.849-5.093-.261-3-.326-4.179V214.2C226.3,214.065,226.3,214,226.3,214Z" transform="translate(-226.1 -214)" fill="#263238"/>
                    </g>
                  </g>
                </g>
              </g>
            </g>
            <g id="Group_29782" data-name="Group 29782" transform="translate(4.505 6.572)">
              <g id="Group_29781" data-name="Group 29781">
                <g id="Group_29780" data-name="Group 29780">
                  <g id="Group_29779" data-name="Group 29779">
                    <path id="Path_42996" data-name="Path 42996" d="M227.2,225.459a4.387,4.387,0,0,1,1.045-2.808c.261-.261.522-.522.914-.457.457.065.653.588.718,1.11a3.563,3.563,0,0,1-.718,2.155,3.036,3.036,0,0,1-1.763,1.11" transform="translate(-227.2 -222.184)" fill="#b8d39b"/>
                  </g>
                </g>
              </g>
            </g>
            <g id="Group_29786" data-name="Group 29786" transform="translate(5.478 10.98)">
              <g id="Group_29785" data-name="Group 29785">
                <g id="Group_29784" data-name="Group 29784">
                  <g id="Group_29783" data-name="Group 29783">
                    <path id="Path_42997" data-name="Path 42997" d="M228.7,233.483a7.225,7.225,0,0,1,1.045-4.048c.131-.131.261-.327.392-.392a.524.524,0,0,1,.522-.065.766.766,0,0,1,.327.718,4.863,4.863,0,0,1-2.285,4.44" transform="translate(-228.689 -228.934)" fill="#b8d39b"/>
                  </g>
                </g>
              </g>
            </g>
            <g id="Group_29790" data-name="Group 29790" transform="translate(6.791 16.501)">
              <g id="Group_29789" data-name="Group 29789">
                <g id="Group_29788" data-name="Group 29788">
                  <g id="Group_29787" data-name="Group 29787">
                    <path id="Path_42998" data-name="Path 42998" d="M230.7,241.249a7.011,7.011,0,0,1,1.306-3.33,1.235,1.235,0,0,1,.653-.522c.457-.065.784.392.849.784a3.476,3.476,0,0,1-.718,2.481,8.8,8.8,0,0,1-1.632,1.632" transform="translate(-230.7 -237.39)" fill="#b8d39b"/>
                  </g>
                </g>
              </g>
            </g>
            <g id="Group_29794" data-name="Group 29794" transform="translate(8.032 20.709)">
              <g id="Group_29793" data-name="Group 29793">
                <g id="Group_29792" data-name="Group 29792">
                  <g id="Group_29791" data-name="Group 29791">
                    <path id="Path_42999" data-name="Path 42999" d="M232.6,246.881a6.33,6.33,0,0,1,1.175-2.612.878.878,0,0,1,.457-.392.613.613,0,0,1,.588.065c.261.2.2.653.065.914a5.922,5.922,0,0,1-1.959,2.742" transform="translate(-232.6 -243.834)" fill="#b8d39b"/>
                  </g>
                </g>
              </g>
            </g>
            <g id="Group_29798" data-name="Group 29798" transform="translate(3.239 20.48)">
              <g id="Group_29797" data-name="Group 29797">
                <g id="Group_29796" data-name="Group 29796">
                  <g id="Group_29795" data-name="Group 29795">
                    <path id="Path_43000" data-name="Path 43000" d="M229.465,245.388A21.843,21.843,0,0,0,226,243.56a.624.624,0,0,0-.588,0,.314.314,0,0,0-.131.392,1.366,1.366,0,0,0,.261.392,5.391,5.391,0,0,0,4.244,1.763" transform="translate(-225.261 -243.485)" fill="#b8d39b"/>
                  </g>
                </g>
              </g>
            </g>
            <g id="Group_29802" data-name="Group 29802" transform="translate(1.485 15.635)">
              <g id="Group_29801" data-name="Group 29801">
                <g id="Group_29800" data-name="Group 29800">
                  <g id="Group_29799" data-name="Group 29799">
                    <path id="Path_43001" data-name="Path 43001" d="M227.227,238.308c-.914-.588-1.894-1.241-2.808-1.828a2.024,2.024,0,0,0-.849-.392.816.816,0,0,0-.849.261.785.785,0,0,0,0,.914,2.259,2.259,0,0,0,.653.718,5.848,5.848,0,0,0,1.959,1.11,2.71,2.71,0,0,0,2.024,0" transform="translate(-222.575 -236.064)" fill="#b8d39b"/>
                  </g>
                </g>
              </g>
            </g>
            <g id="Group_29806" data-name="Group 29806" transform="translate(0.457 10.221)">
              <g id="Group_29805" data-name="Group 29805">
                <g id="Group_29804" data-name="Group 29804">
                  <g id="Group_29803" data-name="Group 29803">
                    <path id="Path_43002" data-name="Path 43002" d="M225.375,230.337a7.712,7.712,0,0,0-3-2.416,1.074,1.074,0,0,0-.653-.131.931.931,0,0,0-.718.979,1.878,1.878,0,0,0,.588,1.306,5.1,5.1,0,0,0,1.306.718,9.274,9.274,0,0,0,2.677.522" transform="translate(-221 -227.773)" fill="#b8d39b"/>
                  </g>
                </g>
              </g>
            </g>
            <g id="Group_29810" data-name="Group 29810" transform="translate(0 4.477)">
              <g id="Group_29809" data-name="Group 29809">
                <g id="Group_29808" data-name="Group 29808">
                  <g id="Group_29807" data-name="Group 29807">
                    <path id="Path_43003" data-name="Path 43003" d="M224.544,222.518a8.98,8.98,0,0,0-3-3.265c-.261-.2-.588-.392-.914-.2-.2.065-.261.327-.326.522a1.9,1.9,0,0,0,.131.588,4.755,4.755,0,0,0,4.179,3.069" transform="translate(-220.3 -218.976)" fill="#b8d39b"/>
                  </g>
                </g>
              </g>
            </g>
            <g id="Group_29814" data-name="Group 29814" transform="translate(3.191)">
              <g id="Group_29813" data-name="Group 29813">
                <g id="Group_29812" data-name="Group 29812">
                  <g id="Group_29811" data-name="Group 29811">
                    <path id="Path_43004" data-name="Path 43004" d="M226.109,217.722a12.775,12.775,0,0,1-.784-2.22,3.883,3.883,0,0,1,.065-2.285,2.3,2.3,0,0,1,.522-.849,1.061,1.061,0,0,1,.979-.2,1.314,1.314,0,0,1,.588.718,4.309,4.309,0,0,1,.065.914c-.2,1.5-.653,3.2-1.437,3.918" transform="translate(-225.186 -212.119)" fill="#b8d39b"/>
                  </g>
                </g>
              </g>
            </g>
          </g>
          <g id="Group_29857" data-name="Group 29857" transform="translate(18.887 8.387)">
            <g id="Group_29820" data-name="Group 29820" transform="translate(0.898 1.228)">
              <g id="Group_29819" data-name="Group 29819">
                <g id="Group_29818" data-name="Group 29818">
                  <g id="Group_29817" data-name="Group 29817">
                    <g id="Group_29816" data-name="Group 29816">
                      <path id="Path_43005" data-name="Path 43005" d="M256.085,213.7v3.918c-.065,1.175-.131,2.612-.327,4.179s-.457,3.265-.849,5.093c-.392,1.763-.849,3.461-1.306,4.963s-.979,2.873-1.371,3.983c-.2.588-.457,1.045-.653,1.5a8.978,8.978,0,0,1-.522,1.11,6.373,6.373,0,0,0-.326.718l-.131.261a1.03,1.03,0,0,1,.065-.261c.065-.2.2-.392.327-.718a9.617,9.617,0,0,0,.457-1.11c.2-.457.392-.914.588-1.5.457-1.11.914-2.481,1.371-3.983a45.875,45.875,0,0,0,1.241-4.963c.392-1.763.653-3.526.849-5.028a35.385,35.385,0,0,0,.326-4.179,14.2,14.2,0,0,0,.065-1.632v-2.024C256.085,213.765,256.085,213.7,256.085,213.7Z" transform="translate(-250.6 -213.7)" fill="#455a64"/>
                    </g>
                  </g>
                </g>
              </g>
            </g>
            <g id="Group_29824" data-name="Group 29824" transform="translate(3.249 6.637)">
              <g id="Group_29823" data-name="Group 29823">
                <g id="Group_29822" data-name="Group 29822">
                  <g id="Group_29821" data-name="Group 29821">
                    <path id="Path_43006" data-name="Path 43006" d="M256.877,225.259a4.387,4.387,0,0,0-1.045-2.808c-.261-.261-.522-.522-.914-.457-.457.065-.653.588-.718,1.11a3.563,3.563,0,0,0,.718,2.155,3.036,3.036,0,0,0,1.763,1.11" transform="translate(-254.2 -221.984)" fill="#d2e7bb"/>
                  </g>
                </g>
              </g>
            </g>
            <g id="Group_29828" data-name="Group 29828" transform="translate(2.648 10.98)">
              <g id="Group_29827" data-name="Group 29827">
                <g id="Group_29826" data-name="Group 29826">
                  <g id="Group_29825" data-name="Group 29825">
                    <path id="Path_43007" data-name="Path 43007" d="M255.579,233.183a7.226,7.226,0,0,0-1.045-4.048c-.131-.131-.261-.326-.392-.392a.524.524,0,0,0-.522-.065.766.766,0,0,0-.326.718,4.863,4.863,0,0,0,2.285,4.44" transform="translate(-253.281 -228.634)" fill="#d2e7bb"/>
                  </g>
                </g>
              </g>
            </g>
            <g id="Group_29832" data-name="Group 29832" transform="translate(0.721 16.501)">
              <g id="Group_29831" data-name="Group 29831">
                <g id="Group_29830" data-name="Group 29830">
                  <g id="Group_29829" data-name="Group 29829">
                    <path id="Path_43008" data-name="Path 43008" d="M253.183,240.949a7.01,7.01,0,0,0-1.306-3.33,1.235,1.235,0,0,0-.653-.522c-.457-.065-.784.392-.849.784a3.476,3.476,0,0,0,.718,2.481,8.794,8.794,0,0,0,1.632,1.632" transform="translate(-250.329 -237.09)" fill="#d2e7bb"/>
                  </g>
                </g>
              </g>
            </g>
            <g id="Group_29836" data-name="Group 29836" transform="translate(0 20.709)">
              <g id="Group_29835" data-name="Group 29835">
                <g id="Group_29834" data-name="Group 29834">
                  <g id="Group_29833" data-name="Group 29833">
                    <path id="Path_43009" data-name="Path 43009" d="M251.625,246.581a6.33,6.33,0,0,0-1.175-2.612.878.878,0,0,0-.457-.392.614.614,0,0,0-.588.065c-.261.2-.2.653-.065.914A5.922,5.922,0,0,0,251.3,247.3" transform="translate(-249.225 -243.534)" fill="#d2e7bb"/>
                  </g>
                </g>
              </g>
            </g>
            <g id="Group_29840" data-name="Group 29840" transform="translate(2.596 20.48)">
              <g id="Group_29839" data-name="Group 29839">
                <g id="Group_29838" data-name="Group 29838">
                  <g id="Group_29837" data-name="Group 29837">
                    <path id="Path_43010" data-name="Path 43010" d="M253.526,245.088a21.847,21.847,0,0,1,3.461-1.828.624.624,0,0,1,.588,0,.375.375,0,0,1,.131.457.832.832,0,0,1-.261.392,5.392,5.392,0,0,1-4.244,1.763" transform="translate(-253.2 -243.185)" fill="#d2e7bb"/>
                  </g>
                </g>
              </g>
            </g>
            <g id="Group_29844" data-name="Group 29844" transform="translate(4.163 15.635)">
              <g id="Group_29843" data-name="Group 29843">
                <g id="Group_29842" data-name="Group 29842">
                  <g id="Group_29841" data-name="Group 29841">
                    <path id="Path_43011" data-name="Path 43011" d="M255.731,238.008c.914-.588,1.894-1.241,2.808-1.828a2.024,2.024,0,0,1,.849-.392.815.815,0,0,1,.849.261.785.785,0,0,1,0,.914,2.259,2.259,0,0,1-.653.718,5.849,5.849,0,0,1-1.959,1.11,2.711,2.711,0,0,1-2.024,0" transform="translate(-255.6 -235.764)" fill="#d2e7bb"/>
                  </g>
                </g>
              </g>
            </g>
            <g id="Group_29848" data-name="Group 29848" transform="translate(5.403 10.221)">
              <g id="Group_29847" data-name="Group 29847">
                <g id="Group_29846" data-name="Group 29846">
                  <g id="Group_29845" data-name="Group 29845">
                    <path id="Path_43012" data-name="Path 43012" d="M257.7,230.037a7.712,7.712,0,0,1,3-2.416,1.074,1.074,0,0,1,.653-.131.931.931,0,0,1,.718.979,1.878,1.878,0,0,1-.588,1.306,5.1,5.1,0,0,1-1.306.718,9.273,9.273,0,0,1-2.677.522" transform="translate(-257.5 -227.473)" fill="#d2e7bb"/>
                  </g>
                </g>
              </g>
            </g>
            <g id="Group_29852" data-name="Group 29852" transform="translate(6.122 4.477)">
              <g id="Group_29851" data-name="Group 29851">
                <g id="Group_29850" data-name="Group 29850">
                  <g id="Group_29849" data-name="Group 29849">
                    <path id="Path_43013" data-name="Path 43013" d="M258.665,222.218a8.981,8.981,0,0,1,3-3.265c.261-.2.588-.392.914-.2.2.065.261.326.327.522a1.9,1.9,0,0,1-.131.588,4.755,4.755,0,0,1-4.179,3.069" transform="translate(-258.6 -218.676)" fill="#d2e7bb"/>
                  </g>
                </g>
              </g>
            </g>
            <g id="Group_29856" data-name="Group 29856" transform="translate(4.881)">
              <g id="Group_29855" data-name="Group 29855">
                <g id="Group_29854" data-name="Group 29854">
                  <g id="Group_29853" data-name="Group 29853">
                    <path id="Path_43014" data-name="Path 43014" d="M258.136,217.422a12.78,12.78,0,0,0,.784-2.22,3.884,3.884,0,0,0-.065-2.285,2.3,2.3,0,0,0-.522-.849,1.061,1.061,0,0,0-.979-.2,1.314,1.314,0,0,0-.588.718,4.31,4.31,0,0,0-.065.914c.2,1.5.588,3.2,1.436,3.918" transform="translate(-256.7 -211.819)" fill="#d2e7bb"/>
                  </g>
                </g>
              </g>
            </g>
          </g>
          <g id="Group_29861" data-name="Group 29861" transform="translate(0.392 35.211)">
            <g id="Group_29860" data-name="Group 29860">
              <g id="Group_29859" data-name="Group 29859">
                <g id="Group_29858" data-name="Group 29858">
                  <path id="Path_43015" data-name="Path 43015" d="M220.9,252.9v3.591a1.379,1.379,0,0,0,1.371,1.371h24.356A1.379,1.379,0,0,0,248,256.491V252.9Z" transform="translate(-220.9 -252.9)" fill="#455a64"/>
                </g>
              </g>
            </g>
          </g>
          <g id="Group_29865" data-name="Group 29865" transform="translate(2.547 40.174)" opacity="0.4">
            <g id="Group_29864" data-name="Group 29864">
              <g id="Group_29863" data-name="Group 29863">
                <g id="Group_29862" data-name="Group 29862">
                  <path id="Path_43016" data-name="Path 43016" d="M224.2,260.5l.2,1.11,22.462,1.632.588-2.743Z" transform="translate(-224.2 -260.5)"/>
                </g>
              </g>
            </g>
          </g>
        </g>
      </g>
      <g id="Group_110859" data-name="Group 110859" transform="translate(116.637 87.519)">
        <path id="Path_80215" data-name="Path 80215" d="M-2276.957,442.434c-1.021,1.021-26.9,22.081-26.9,22.081h7.812l20.533-16.9s.968-.812.749-3.189S-2275.936,441.413-2276.957,442.434Z" transform="translate(2313.12 -441.964)" fill="#959b9d"/>
        <path id="Path_80216" data-name="Path 80216" d="M0,0H23.969V2.084H0Z" transform="translate(0 22.552)" fill="#959b9d"/>
        <line id="Line_3" data-name="Line 3" x1="24.316" y2="19.8" transform="translate(13.551 2.196)" fill="none" stroke="#263238" stroke-linecap="round" stroke-width="0.4"/>
        <path id="Path_80217" data-name="Path 80217" d="M-2254.365,493.7H-2252l-4.707-10.271-1.88,1.628Z" transform="translate(2283.741 -469.067)" fill="#959b9d"/>
      </g>
    </g>
  </g>
</svg>
